<svg version="1.1" viewBox="0.0 0.0 960.0 540.0" fill="none" stroke="none" stroke-linecap="square" stroke-miterlimit="10" xmlns:xlink="http://www.w3.org/1999/xlink" xmlns="http://www.w3.org/2000/svg"><clipPath id="g3b992d5e7de_0_0.0"><path d="m0 0l960.0 0l0 540.0l-960.0 0l0 -540.0z" clip-rule="nonzero"/></clipPath><g clip-path="url(#g3b992d5e7de_0_0.0)"><path fill="#ffffff" d="m0 0l960.0 0l0 540.0l-960.0 0z" fill-rule="evenodd"/><path fill="#a4c2f4" d="m610.9743 402.7156l215.77954 0l0 106.23624l-215.77954 0z" fill-rule="evenodd"/><path stroke="#202729" stroke-width="1.658792650918635" stroke-linejoin="round" stroke-linecap="butt" d="m610.9743 402.7156l215.77954 0l0 106.23624l-215.77954 0z" fill-rule="evenodd"/><path fill="#000000" d="m644.8162 454.4384q-4.5625 0 -7.59375 -3.0q-3.03125 -3.015625 -3.03125 -7.6875q0 -4.671875 3.03125 -7.671875q3.03125 -3.0 7.59375 -3.0q4.90625 0 7.828125 4.078125l-2.171875 1.21875q-0.890625 -1.3125 -2.40625 -2.15625q-1.5 -0.859375 -3.25 -0.859375q-3.4375 0 -5.703125 2.390625q-2.265625 2.390625 -2.265625 6.0q0 3.65625 2.25 6.03125q2.25 2.359375 5.71875 2.359375q1.75 0 3.25 -0.828125q1.515625 -0.84375 2.40625 -2.171875l2.203125 1.203125q-3.0 4.09375 -7.859375 4.09375zm25.76892 -0.375l-1.8125 -4.578125l-10.28125 0l-1.828125 4.578125l-2.9375 0l8.296875 -20.640625l3.1875 0l8.328125 20.640625l-2.953125 0zm-6.953125 -17.984375l-4.40625 11.109375l8.765625 0l-4.359375 -11.109375zm27.210938 17.984375l-12.046875 -16.46875l0 16.46875l-2.5625 0l0 -20.640625l2.625 0l11.890625 16.125l0 -16.125l2.5625 0l0 20.640625l-2.46875 0zm17.086731 0.375q-4.5625 0 -7.59375 -3.0q-3.03125 -3.015625 -3.03125 -7.6875q0 -4.671875 3.03125 -7.671875q3.03125 -3.0 7.59375 -3.0q4.90625 0 7.828125 4.078125l-2.171875 1.21875q-0.890625 -1.3125 -2.40625 -2.15625q-1.5 -0.859375 -3.25 -0.859375q-3.4375 0 -5.703125 2.390625q-2.265625 2.390625 -2.265625 6.0q0 3.65625 2.25 6.03125q2.25 2.359375 5.71875 2.359375q1.75 0 3.25 -0.828125q1.515625 -0.84375 2.40625 -2.171875l2.203125 1.203125q-3.0 4.09375 -7.859375 4.09375zm11.143066 -0.375l0 -20.640625l13.515625 0l0 2.28125l-10.953125 0l0 6.65625l10.734375 0l0 2.296875l-10.734375 0l0 7.109375l10.953125 0l0 2.296875l-13.515625 0zm17.612366 0l0 -20.640625l2.5625 0l0 18.34375l9.59375 0l0 2.296875l-12.15625 0zm15.786133 0l0 -20.640625l2.5625 0l0 18.34375l9.59375 0l0 2.296875l-12.15625 0zm15.786133 0l0 -20.640625l13.515625 0l0 2.28125l-10.953125 0l0 6.65625l10.734375 0l0 2.296875l-10.734375 0l0 7.109375l10.953125 0l0 2.296875l-13.515625 0zm17.612305 0l0 -20.640625l7.046875 0q4.703125 0 7.640625 2.921875q2.953125 2.921875 2.953125 7.40625q0 4.53125 -2.96875 7.421875q-2.953125 2.890625 -7.625 2.890625l-7.046875 0zm7.046875 -2.296875q3.53125 0 5.71875 -2.203125q2.203125 -2.21875 2.203125 -5.8125q0 -3.578125 -2.171875 -5.8125q-2.15625 -2.234375 -5.75 -2.234375l-4.484375 0l0 16.0625l4.484375 0z" fill-rule="nonzero"/><path fill="#000000" d="m647.634 482.53336l0 -1.21875q-1.34375 1.484375 -3.53125 1.484375q-1.625 0 -2.6875 -1.015625q-1.046875 -1.015625 -1.046875 -2.515625q0 -1.546875 1.046875 -2.53125q1.046875 -0.984375 2.6875 -0.984375q2.296875 0 3.53125 1.453125l0 -1.90625q0 -1.09375 -0.765625 -1.671875q-0.765625 -0.59375 -1.9375 -0.59375q-1.875 0 -3.265625 1.484375l-0.765625 -1.140625q1.703125 -1.765625 4.25 -1.765625q1.96875 0 3.046875 0.953125q1.09375 0.9375 1.09375 2.640625l0 7.328125l-1.65625 0zm-2.9375 -0.921875q1.96875 0 2.9375 -1.328125l0 -2.015625q-0.96875 -1.3125 -2.9375 -1.3125q-1.171875 0 -1.90625 0.65625q-0.71875 0.640625 -0.71875 1.671875q0 1.015625 0.71875 1.671875q0.734375 0.65625 1.90625 0.65625zm11.275757 1.1875q-2.71875 0 -4.296875 -1.671875l0.859375 -1.203125q0.53125 0.625 1.46875 1.078125q0.9375 0.453125 2.03125 0.453125q1.25 0 1.875 -0.515625q0.640625 -0.53125 0.640625 -1.328125q0 -0.703125 -0.703125 -1.109375q-0.6875 -0.40625 -2.578125 -0.84375q-1.609375 -0.328125 -2.46875 -1.046875q-0.84375 -0.71875 -0.84375 -1.9375q0 -1.34375 1.078125 -2.203125q1.078125 -0.859375 2.890625 -0.859375q2.40625 0 3.953125 1.53125l-0.765625 1.15625q-0.484375 -0.578125 -1.3125 -0.953125q-0.828125 -0.390625 -1.875 -0.390625q-1.09375 0 -1.734375 0.484375q-0.625 0.484375 -0.625 1.1875q0 0.640625 0.703125 1.015625q0.71875 0.375 2.609375 0.78125q1.609375 0.375 2.453125 1.140625q0.84375 0.75 0.84375 2.015625q0 1.46875 -1.15625 2.34375q-1.140625 0.875 -3.046875 0.875zm6.5631714 2.40625q0.34375 0.171875 0.90625 0.171875q0.546875 0 0.921875 -0.234375q0.375 -0.21875 0.65625 -0.890625l0.71875 -1.609375l-4.46875 -10.765625l1.796875 0l3.546875 8.734375l3.53125 -8.734375l1.8125 0l-5.34375 12.8125q-0.875 2.125 -3.125 2.171875q-0.640625 0 -1.21875 -0.15625l0.265625 -1.5zm18.349487 -2.671875l0 -6.984375q0 -1.40625 -0.65625 -1.9375q-0.65625 -0.53125 -1.734375 -0.53125q-0.921875 0 -1.828125 0.5q-0.890625 0.5 -1.328125 1.15625l0 7.796875l-1.65625 0l0 -10.65625l1.65625 0l0 1.53125q0.6875 -0.78125 1.6875 -1.28125q1.0 -0.515625 2.109375 -0.515625q3.40625 0 3.40625 3.4375l0 7.484375l-1.65625 0zm9.664978 0.265625q-2.34375 0 -3.84375 -1.59375q-1.484375 -1.59375 -1.484375 -4.015625q0 -2.40625 1.484375 -3.984375q1.5 -1.59375 3.84375 -1.59375q2.46875 0 3.90625 1.84375l-1.109375 1.015625q-1.015625 -1.390625 -2.703125 -1.390625q-1.640625 0 -2.671875 1.140625q-1.015625 1.140625 -1.015625 2.96875q0 1.859375 1.015625 3.0q1.015625 1.125 2.671875 1.125q1.671875 0 2.703125 -1.390625l1.109375 1.015625q-1.4375 1.859375 -3.90625 1.859375zm7.100525 -8.65625q-0.5 0 -0.859375 -0.34375q-0.34375 -0.359375 -0.34375 -0.875q0 -0.5 0.34375 -0.84375q0.359375 -0.359375 0.859375 -0.359375q0.515625 0 0.859375 0.359375q0.359375 0.34375 0.359375 0.84375q0 0.515625 -0.359375 0.875q-0.34375 0.34375 -0.859375 0.34375zm0 8.609375q-0.5 0 -0.859375 -0.34375q-0.34375 -0.359375 -0.34375 -0.875q0 -0.5 0.34375 -0.84375q0.359375 -0.359375 0.859375 -0.359375q0.515625 0 0.859375 0.359375q0.359375 0.34375 0.359375 0.84375q0 0.515625 -0.359375 0.875q-0.34375 0.34375 -0.859375 0.34375zm5.077942 -8.609375q-0.5 0 -0.859375 -0.34375q-0.34375 -0.359375 -0.34375 -0.875q0 -0.5 0.34375 -0.84375q0.359375 -0.359375 0.859375 -0.359375q0.515625 0 0.859375 0.359375q0.359375 0.34375 0.359375 0.84375q0 0.515625 -0.359375 0.875q-0.34375 0.34375 -0.859375 0.34375zm0 8.609375q-0.5 0 -0.859375 -0.34375q-0.34375 -0.359375 -0.34375 -0.875q0 -0.5 0.34375 -0.84375q0.359375 -0.359375 0.859375 -0.359375q0.515625 0 0.859375 0.359375q0.359375 0.34375 0.359375 0.84375q0 0.515625 -0.359375 0.875q-0.34375 0.34375 -0.859375 0.34375zm8.906067 0.046875q-2.34375 0 -3.84375 -1.59375q-1.484375 -1.59375 -1.484375 -4.015625q0 -2.40625 1.484375 -3.984375q1.5 -1.59375 3.84375 -1.59375q2.46875 0 3.90625 1.84375l-1.109375 1.015625q-1.015625 -1.390625 -2.703125 -1.390625q-1.640625 0 -2.671875 1.140625q-1.015625 1.140625 -1.015625 2.96875q0 1.859375 1.015625 3.0q1.015625 1.125 2.671875 1.125q1.671875 0 2.703125 -1.390625l1.109375 1.015625q-1.4375 1.859375 -3.90625 1.859375zm12.8974 -0.265625l0 -1.21875q-1.34375 1.484375 -3.53125 1.484375q-1.625 0 -2.6875 -1.015625q-1.046875 -1.015625 -1.046875 -2.515625q0 -1.546875 1.046875 -2.53125q1.046875 -0.984375 2.6875 -0.984375q2.296875 0 3.53125 1.453125l0 -1.90625q0 -1.09375 -0.765625 -1.671875q-0.765625 -0.59375 -1.9375 -0.59375q-1.875 0 -3.265625 1.484375l-0.765625 -1.140625q1.703125 -1.765625 4.25 -1.765625q1.96875 0 3.046875 0.953125q1.09375 0.9375 1.09375 2.640625l0 7.328125l-1.65625 0zm-2.9375 -0.921875q1.96875 0 2.9375 -1.328125l0 -2.015625q-0.96875 -1.3125 -2.9375 -1.3125q-1.171875 0 -1.90625 0.65625q-0.71875 0.640625 -0.71875 1.671875q0 1.015625 0.71875 1.671875q0.734375 0.65625 1.90625 0.65625zm15.103882 0.921875l0 -6.984375q0 -1.40625 -0.65625 -1.9375q-0.65625 -0.53125 -1.734375 -0.53125q-0.921875 0 -1.828125 0.5q-0.890625 0.5 -1.328125 1.15625l0 7.796875l-1.65625 0l0 -10.65625l1.65625 0l0 1.53125q0.6875 -0.78125 1.6875 -1.28125q1.0 -0.515625 2.109375 -0.515625q3.40625 0 3.40625 3.4375l0 7.484375l-1.65625 0zm9.664978 0.265625q-2.34375 0 -3.84375 -1.59375q-1.484375 -1.59375 -1.484375 -4.015625q0 -2.40625 1.484375 -3.984375q1.5 -1.59375 3.84375 -1.59375q2.46875 0 3.90625 1.84375l-1.109375 1.015625q-1.015625 -1.390625 -2.703125 -1.390625q-1.640625 0 -2.671875 1.140625q-1.015625 1.140625 -1.015625 2.96875q0 1.859375 1.015625 3.0q1.015625 1.125 2.671875 1.125q1.671875 0 2.703125 -1.390625l1.109375 1.015625q-1.4375 1.859375 -3.90625 1.859375zm11.038025 0q-2.40625 0 -3.921875 -1.5625q-1.515625 -1.578125 -1.515625 -4.046875q0 -2.359375 1.5 -3.96875q1.515625 -1.609375 3.765625 -1.609375q2.296875 0 3.703125 1.59375q1.421875 1.578125 1.421875 4.125l0 0.40625l-8.640625 0q0.09375 1.640625 1.1875 2.671875q1.09375 1.015625 2.65625 1.015625q1.9375 0 3.28125 -1.34375l0.796875 1.078125q-1.625 1.640625 -4.234375 1.640625zm3.3125 -6.265625q0 -1.484375 -0.96875 -2.515625q-0.96875 -1.046875 -2.546875 -1.046875q-1.46875 0 -2.453125 1.046875q-0.984375 1.03125 -1.03125 2.515625l7.0 0zm4.3049316 6.0l0 -14.71875l1.65625 0l0 14.71875l-1.65625 0zm4.9675293 0l0 -14.71875l1.65625 0l0 14.71875l-1.65625 0zm9.78009 0.265625q-2.40625 0 -3.921875 -1.5625q-1.515625 -1.578125 -1.515625 -4.046875q0 -2.359375 1.5 -3.96875q1.515625 -1.609375 3.765625 -1.609375q2.296875 0 3.703125 1.59375q1.421875 1.578125 1.421875 4.125l0 0.40625l-8.640625 0q0.09375 1.640625 1.1875 2.671875q1.09375 1.015625 2.65625 1.015625q1.9375 0 3.28125 -1.34375l0.796875 1.078125q-1.625 1.640625 -4.234375 1.640625zm3.3125 -6.265625q0 -1.484375 -0.96875 -2.515625q-0.96875 -1.046875 -2.546875 -1.046875q-1.46875 0 -2.453125 1.046875q-0.984375 1.03125 -1.03125 2.515625l7.0 0zm12.039307 6.0l0 -1.59375q-0.609375 0.828125 -1.546875 1.34375q-0.9375 0.515625 -2.0625 0.515625q-2.140625 0 -3.453125 -1.515625q-1.296875 -1.53125 -1.296875 -4.078125q0 -2.546875 1.3125 -4.0625q1.328125 -1.53125 3.4375 -1.53125q1.078125 0 2.015625 0.5q0.953125 0.484375 1.59375 1.375l0 -5.671875l1.640625 0l0 14.71875l-1.640625 0zm-3.203125 -1.21875q0.984375 0 1.859375 -0.484375q0.890625 -0.484375 1.34375 -1.1875l0 -4.84375q-0.453125 -0.703125 -1.34375 -1.203125q-0.875 -0.515625 -1.859375 -0.515625q-1.546875 0 -2.484375 1.125q-0.9375 1.125 -0.9375 3.0q0 1.84375 0.921875 2.984375q0.921875 1.125 2.5 1.125z" fill-rule="nonzero"/><path fill="#fff176" d="m493.62225 204.60307l215.77954 0l0 106.23622l-215.77954 0z" fill-rule="evenodd"/><path stroke="#202729" stroke-width="1.658792650918635" stroke-linejoin="round" stroke-linecap="butt" d="m493.62225 204.60307l215.77954 0l0 106.23622l-215.77954 0z" fill-rule="evenodd"/><path fill="#000000" d="m564.76276 255.95084l0 -20.640625l9.1875 0q2.625 0 4.203125 1.4375q1.578125 1.4375 1.578125 3.8125q0 1.828125 -1.0 3.109375q-1.0 1.265625 -2.609375 1.640625q1.640625 0.234375 2.828125 1.734375q1.1875 1.484375 1.1875 3.328125q0 2.546875 -1.59375 4.0625q-1.59375 1.515625 -4.375 1.515625l-9.40625 0zm8.75 -11.703125q1.765625 0 2.65625 -0.9375q0.90625 -0.953125 0.90625 -2.375q0 -1.390625 -0.90625 -2.359375q-0.890625 -0.984375 -2.65625 -0.984375l-6.1875 0l0 6.65625l6.1875 0zm0.125 9.40625q1.828125 0 2.828125 -0.9375q1.015625 -0.9375 1.015625 -2.609375q0 -1.578125 -1.0625 -2.5625q-1.046875 -1.0 -2.78125 -1.0l-6.3125 0l0 7.109375l6.3125 0zm19.000793 2.671875q-3.984375 0 -6.203125 -2.1875q-2.203125 -2.1875 -2.203125 -6.203125l0 -12.625l2.5625 0l0 12.5625q0 2.84375 1.484375 4.5q1.484375 1.65625 4.359375 1.65625q2.890625 0 4.375 -1.65625q1.484375 -1.65625 1.484375 -4.5l0 -12.5625l2.5625 0l0 12.59375q0 4.015625 -2.171875 6.21875q-2.15625 2.203125 -6.25 2.203125zm19.932861 0q-4.984375 0 -7.921875 -3.28125l1.515625 -1.953125q1.28125 1.421875 2.96875 2.1875q1.703125 0.75 3.53125 0.75q2.234375 0 3.546875 -0.984375q1.3125 -1.0 1.3125 -2.578125q0 -2.4375 -3.828125 -3.484375q-4.546875 -1.21875 -5.8125 -1.921875q-1.25 -0.71875 -1.921875 -1.78125q-0.65625 -1.078125 -0.65625 -2.5625q0 -2.46875 1.984375 -4.09375q2.0 -1.625 5.109375 -1.625q4.640625 0 7.328125 2.875l-1.546875 1.890625q-2.234375 -2.484375 -5.96875 -2.484375q-1.859375 0 -3.0625 0.90625q-1.1875 0.890625 -1.1875 2.375q0 1.09375 0.984375 1.859375q1.0 0.75 2.890625 1.21875q4.390625 1.203125 5.671875 1.984375q1.296875 0.765625 1.984375 1.890625q0.703125 1.125 0.703125 2.734375q0 2.859375 -2.078125 4.46875q-2.078125 1.609375 -5.546875 1.609375zm17.156982 -0.375l0 -8.734375l-8.140625 -11.90625l3.0 0l6.40625 9.59375l6.40625 -9.59375l3.0 0l-8.109375 11.90625l0 8.734375l-2.5625 0z" fill-rule="nonzero"/><path fill="#000000" d="m528.8431 284.68643q-2.34375 0 -3.84375 -1.59375q-1.484375 -1.59375 -1.484375 -4.015625q0 -2.40625 1.484375 -3.984375q1.5 -1.59375 3.84375 -1.59375q2.46875 0 3.90625 1.84375l-1.109375 1.015625q-1.015625 -1.390625 -2.703125 -1.390625q-1.640625 0 -2.671875 1.140625q-1.015625 1.140625 -1.015625 2.96875q0 1.859375 1.015625 3.0q1.015625 1.125 2.671875 1.125q1.671875 0 2.703125 -1.390625l1.109375 1.015625q-1.4375 1.859375 -3.90625 1.859375zm10.881775 0q-2.3125 0 -3.796875 -1.578125q-1.484375 -1.578125 -1.484375 -4.03125q0 -2.46875 1.484375 -4.015625q1.484375 -1.5625 3.796875 -1.5625q2.3125 0 3.796875 1.5625q1.484375 1.546875 1.484375 4.015625q0 2.453125 -1.484375 4.03125q-1.484375 1.578125 -3.796875 1.578125zm0 -1.484375q1.546875 0 2.53125 -1.15625q1.0 -1.15625 1.0 -2.96875q0 -1.78125 -1.0 -2.9375q-0.984375 -1.171875 -2.53125 -1.171875q-1.546875 0 -2.546875 1.15625q-1.0 1.140625 -1.0 2.953125q0 1.828125 0.984375 2.984375q1.0 1.140625 2.5625 1.140625zm7.972351 1.21875l0 -10.65625l1.65625 0l0 1.71875q1.484375 -1.953125 3.546875 -1.953125l0 1.703125l-0.65625 -0.0625q-0.75 0 -1.65625 0.546875q-0.90625 0.53125 -1.234375 1.15625l0 7.546875l-1.65625 0zm11.942017 0.265625q-2.3125 0 -3.796875 -1.578125q-1.484375 -1.578125 -1.484375 -4.03125q0 -2.46875 1.484375 -4.015625q1.484375 -1.5625 3.796875 -1.5625q2.3125 0 3.796875 1.5625q1.484375 1.546875 1.484375 4.015625q0 2.453125 -1.484375 4.03125q-1.484375 1.578125 -3.796875 1.578125zm0 -1.484375q1.546875 0 2.53125 -1.15625q1.0 -1.15625 1.0 -2.96875q0 -1.78125 -1.0 -2.9375q-0.984375 -1.171875 -2.53125 -1.171875q-1.546875 0 -2.546875 1.15625q-1.0 1.140625 -1.0 2.953125q0 1.828125 0.984375 2.984375q1.0 1.140625 2.5625 1.140625zm10.659912 1.484375q-2.359375 0 -2.359375 -2.5l0 -6.96875l-1.765625 0l0 -1.453125l1.765625 0l0 -2.921875l1.65625 0l0 2.921875l2.171875 0l0 1.453125l-2.171875 0l0 6.625q0 0.59375 0.265625 0.984375q0.265625 0.375 0.8125 0.375q0.6875 0 1.125 -0.4375l0.5 1.234375q-0.6875 0.6875 -2.0 0.6875zm4.615906 -12.453125q-0.4375 0 -0.765625 -0.3125q-0.328125 -0.328125 -0.328125 -0.796875q0 -0.453125 0.328125 -0.78125q0.328125 -0.34375 0.765625 -0.34375q0.46875 0 0.796875 0.34375q0.328125 0.328125 0.328125 0.78125q0 0.46875 -0.328125 0.796875q-0.328125 0.3125 -0.796875 0.3125zm-0.8125 12.1875l0 -10.65625l1.65625 0l0 10.65625l-1.65625 0zm12.170715 0l0 -6.984375q0 -1.40625 -0.65625 -1.9375q-0.65625 -0.53125 -1.734375 -0.53125q-0.921875 0 -1.828125 0.5q-0.890625 0.5 -1.328125 1.15625l0 7.796875l-1.65625 0l0 -10.65625l1.65625 0l0 1.53125q0.6875 -0.78125 1.6875 -1.28125q1.0 -0.515625 2.109375 -0.515625q3.40625 0 3.40625 3.4375l0 7.484375l-1.65625 0zm9.774353 0.265625q-2.40625 0 -3.921875 -1.5625q-1.515625 -1.578125 -1.515625 -4.046875q0 -2.359375 1.5 -3.96875q1.515625 -1.609375 3.765625 -1.609375q2.296875 0 3.703125 1.59375q1.421875 1.578125 1.421875 4.125l0 0.40625l-8.640625 0q0.09375 1.640625 1.1875 2.671875q1.09375 1.015625 2.65625 1.015625q1.9375 0 3.28125 -1.34375l0.796875 1.078125q-1.625 1.640625 -4.234375 1.640625zm3.3125 -6.265625q0 -1.484375 -0.96875 -2.515625q-0.96875 -1.046875 -2.546875 -1.046875q-1.46875 0 -2.453125 1.046875q-0.984375 1.03125 -1.03125 2.515625l7.0 0zm2.5861816 8.09375l0 -1.203125l12.578125 0l0 1.203125l-12.578125 0zm21.389526 -2.09375l0 -7.015625q0 -1.203125 -0.5625 -1.8125q-0.5625 -0.625 -1.84375 -0.625q-0.90625 0 -1.765625 0.46875q-0.84375 0.46875 -1.390625 1.1875l0 7.796875l-1.65625 0l0 -14.71875l1.65625 0l0 5.59375q0.703125 -0.8125 1.71875 -1.296875q1.015625 -0.5 2.09375 -0.5q3.40625 0 3.40625 3.390625l0 7.53125l-1.65625 0zm11.640198 0l0 -1.21875q-1.34375 1.484375 -3.53125 1.484375q-1.625 0 -2.6875 -1.015625q-1.046875 -1.015625 -1.046875 -2.515625q0 -1.546875 1.046875 -2.53125q1.046875 -0.984375 2.6875 -0.984375q2.296875 0 3.53125 1.453125l0 -1.90625q0 -1.09375 -0.765625 -1.671875q-0.765625 -0.59375 -1.9375 -0.59375q-1.875 0 -3.265625 1.484375l-0.765625 -1.140625q1.703125 -1.765625 4.25 -1.765625q1.96875 0 3.046875 0.953125q1.09375 0.9375 1.09375 2.640625l0 7.328125l-1.65625 0zm-2.9375 -0.921875q1.96875 0 2.9375 -1.328125l0 -2.015625q-0.96875 -1.3125 -2.9375 -1.3125q-1.171875 0 -1.90625 0.65625q-0.71875 0.640625 -0.71875 1.671875q0 1.015625 0.71875 1.671875q0.734375 0.65625 1.90625 0.65625zm15.103882 0.921875l0 -6.984375q0 -1.40625 -0.65625 -1.9375q-0.65625 -0.53125 -1.734375 -0.53125q-0.921875 0 -1.828125 0.5q-0.890625 0.5 -1.328125 1.15625l0 7.796875l-1.65625 0l0 -10.65625l1.65625 0l0 1.53125q0.6875 -0.78125 1.6875 -1.28125q1.0 -0.515625 2.109375 -0.515625q3.40625 0 3.40625 3.4375l0 7.484375l-1.65625 0zm12.696228 0l0 -1.59375q-0.609375 0.828125 -1.546875 1.34375q-0.9375 0.515625 -2.0625 0.515625q-2.140625 0 -3.453125 -1.515625q-1.296875 -1.53125 -1.296875 -4.078125q0 -2.546875 1.3125 -4.0625q1.328125 -1.53125 3.4375 -1.53125q1.078125 0 2.015625 0.5q0.953125 0.484375 1.59375 1.375l0 -5.671875l1.640625 0l0 14.71875l-1.640625 0zm-3.203125 -1.21875q0.984375 0 1.859375 -0.484375q0.890625 -0.484375 1.34375 -1.1875l0 -4.84375q-0.453125 -0.703125 -1.34375 -1.203125q-0.875 -0.515625 -1.859375 -0.515625q-1.546875 0 -2.484375 1.125q-0.9375 1.125 -0.9375 3.0q0 1.84375 0.921875 2.984375q0.921875 1.125 2.5 1.125zm8.163635 1.21875l0 -14.71875l1.65625 0l0 14.71875l-1.65625 0zm9.780029 0.265625q-2.40625 0 -3.921875 -1.5625q-1.515625 -1.578125 -1.515625 -4.046875q0 -2.359375 1.5 -3.96875q1.515625 -1.609375 3.765625 -1.609375q2.296875 0 3.703125 1.59375q1.421875 1.578125 1.421875 4.125l0 0.40625l-8.640625 0q0.09375 1.640625 1.1875 2.671875q1.09375 1.015625 2.65625 1.015625q1.9375 0 3.28125 -1.34375l0.796875 1.078125q-1.625 1.640625 -4.234375 1.640625zm3.3125 -6.265625q0 -1.484375 -0.96875 -2.515625q-0.96875 -1.046875 -2.546875 -1.046875q-1.46875 0 -2.453125 1.046875q-0.984375 1.03125 -1.03125 2.515625l7.0 0z" fill-rule="nonzero"/><path fill="#63d297" d="m157.2454 204.60251l215.77953 0l0 106.23624l-215.77953 0z" fill-rule="evenodd"/><path stroke="#202729" stroke-width="1.658792650918635" stroke-linejoin="round" stroke-linecap="butt" d="m157.2454 204.60251l215.77953 0l0 106.23624l-215.77953 0z" fill-rule="evenodd"/><path fill="#000000" d="m225.12025 255.95029l0 -20.640625l7.046875 0q4.703125 0 7.640625 2.921875q2.953125 2.921875 2.953125 7.40625q0 4.53125 -2.96875 7.421875q-2.953125 2.890625 -7.625 2.890625l-7.046875 0zm7.046875 -2.296875q3.53125 0 5.71875 -2.203125q2.203125 -2.21875 2.203125 -5.8125q0 -3.578125 -2.171875 -5.8125q-2.15625 -2.234375 -5.75 -2.234375l-4.484375 0l0 16.0625l4.484375 0zm24.026596 2.671875q-4.546875 0 -7.40625 -3.03125q-2.84375 -3.046875 -2.84375 -7.65625q0 -4.640625 2.859375 -7.65625q2.875 -3.015625 7.390625 -3.015625q4.546875 0 7.390625 3.03125q2.84375 3.03125 2.84375 7.640625q0 4.640625 -2.859375 7.671875q-2.859375 3.015625 -7.375 3.015625zm0 -2.296875q3.375 0 5.46875 -2.359375q2.109375 -2.375 2.109375 -6.03125q0 -3.703125 -2.109375 -6.046875q-2.09375 -2.34375 -5.46875 -2.34375q-3.34375 0 -5.46875 2.296875q-2.125 2.296875 -2.125 6.09375q0 3.71875 2.09375 6.0625q2.09375 2.328125 5.5 2.328125zm28.882294 1.921875l-12.046875 -16.46875l0 16.46875l-2.5625 0l0 -20.640625l2.625 0l11.890625 16.125l0 -16.125l2.5625 0l0 20.640625l-2.46875 0zm7.3054504 0l0 -20.640625l13.515625 0l0 2.28125l-10.953125 0l0 6.65625l10.734375 0l0 2.296875l-10.734375 0l0 7.109375l10.953125 0l0 2.296875l-13.515625 0z" fill-rule="nonzero"/><path fill="#000000" d="m264.2023 284.42023l0 -13.09375l-4.65625 0l0 -1.625l11.171875 0l0 1.625l-4.671875 0l0 13.09375l-1.84375 0z" fill-rule="nonzero"/><path fill="#f44747" d="m376.26947 402.7156l215.77954 0l0 106.23624l-215.77954 0z" fill-rule="evenodd"/><path stroke="#202729" stroke-width="1.658792650918635" stroke-linejoin="round" stroke-linecap="butt" d="m376.26947 402.7156l215.77954 0l0 106.23624l-215.77954 0z" fill-rule="evenodd"/><path fill="#000000" d="m437.70605 454.0634l0 -20.640625l13.515625 0l0 2.28125l-10.953125 0l0 6.65625l10.734375 0l0 2.296875l-10.734375 0l0 7.109375l10.953125 0l0 2.296875l-13.515625 0zm29.549866 0l-5.265625 -8.203125l-4.109375 0l0 8.203125l-2.5625 0l0 -20.640625l8.28125 0q2.921875 0 4.6875 1.734375q1.78125 1.734375 1.78125 4.484375q0 2.59375 -1.5 4.1875q-1.5 1.59375 -3.84375 1.8125l5.5625 8.421875l-3.03125 0zm-3.953125 -10.46875q1.84375 0 2.96875 -1.09375q1.140625 -1.09375 1.140625 -2.859375q0 -1.765625 -1.140625 -2.84375q-1.125 -1.09375 -2.96875 -1.09375l-5.421875 0l0 7.890625l5.421875 0zm22.772644 10.46875l-5.265625 -8.203125l-4.109375 0l0 8.203125l-2.5625 0l0 -20.640625l8.28125 0q2.921875 0 4.6875 1.734375q1.78125 1.734375 1.78125 4.484375q0 2.59375 -1.5 4.1875q-1.5 1.59375 -3.84375 1.8125l5.5625 8.421875l-3.03125 0zm-3.953125 -10.46875q1.84375 0 2.96875 -1.09375q1.140625 -1.09375 1.140625 -2.859375q0 -1.765625 -1.140625 -2.84375q-1.125 -1.09375 -2.96875 -1.09375l-5.421875 0l0 7.890625l5.421875 0zm20.241425 10.84375q-4.546875 0 -7.40625 -3.03125q-2.84375 -3.046875 -2.84375 -7.65625q0 -4.640625 2.859375 -7.65625q2.875 -3.015625 7.390625 -3.015625q4.5468445 0 7.3905945 3.03125q2.84375 3.03125 2.84375 7.640625q0 4.640625 -2.859375 7.671875q-2.859375 3.015625 -7.3749695 3.015625zm0 -2.296875q3.3749695 0 5.4687195 -2.359375q2.109375 -2.375 2.109375 -6.03125q0 -3.703125 -2.109375 -6.046875q-2.09375 -2.34375 -5.4687195 -2.34375q-3.34375 0 -5.46875 2.296875q-2.125 2.296875 -2.125 6.09375q0 3.71875 2.09375 6.0625q2.09375 2.328125 5.5 2.328125zm26.210419 1.921875l-5.265625 -8.203125l-4.109375 0l0 8.203125l-2.5625 0l0 -20.640625l8.28125 0q2.921875 0 4.6875 1.734375q1.78125 1.734375 1.78125 4.484375q0 2.59375 -1.5 4.1875q-1.5 1.59375 -3.84375 1.8125l5.5625 8.421875l-3.03125 0zm-3.953125 -10.46875q1.84375 0 2.96875 -1.09375q1.140625 -1.09375 1.140625 -2.859375q0 -1.765625 -1.140625 -2.84375q-1.125 -1.09375 -2.96875 -1.09375l-5.421875 0l0 7.890625l5.421875 0z" fill-rule="nonzero"/><path fill="#000000" d="m402.66678 482.79898q-2.71875 0 -4.296875 -1.671875l0.859375 -1.203125q0.53125 0.625 1.46875 1.078125q0.9375 0.453125 2.03125 0.453125q1.25 0 1.875 -0.515625q0.640625 -0.53125 0.640625 -1.328125q0 -0.703125 -0.703125 -1.109375q-0.6875 -0.40625 -2.578125 -0.84375q-1.609375 -0.328125 -2.46875 -1.046875q-0.84375 -0.71875 -0.84375 -1.9375q0 -1.34375 1.078125 -2.203125q1.078125 -0.859375 2.890625 -0.859375q2.40625 0 3.953125 1.53125l-0.765625 1.15625q-0.484375 -0.578125 -1.3125 -0.953125q-0.828125 -0.390625 -1.875 -0.390625q-1.09375 0 -1.734375 0.484375q-0.625 0.484375 -0.625 1.1875q0 0.640625 0.703125 1.015625q0.71875 0.375 2.609375 0.78125q1.609375 0.375 2.453125 1.140625q0.84375 0.75 0.84375 2.015625q0 1.46875 -1.15625 2.34375q-1.140625 0.875 -3.046875 0.875zm9.578796 0q-2.359375 0 -2.359375 -2.5l0 -6.96875l-1.765625 0l0 -1.453125l1.765625 0l0 -2.921875l1.65625 0l0 2.921875l2.171875 0l0 1.453125l-2.171875 0l0 6.625q0 0.59375 0.265625 0.984375q0.265625 0.375 0.8125 0.375q0.6875 0 1.125 -0.4375l0.5 1.234375q-0.6875 0.6875 -2.0 0.6875zm11.537811 -0.265625l0 -1.59375q-0.609375 0.828125 -1.546875 1.34375q-0.9375 0.515625 -2.0625 0.515625q-2.140625 0 -3.453125 -1.515625q-1.296875 -1.53125 -1.296875 -4.078125q0 -2.546875 1.3125 -4.0625q1.328125 -1.53125 3.4375 -1.53125q1.078125 0 2.015625 0.5q0.953125 0.484375 1.59375 1.375l0 -5.671875l1.640625 0l0 14.71875l-1.640625 0zm-3.203125 -1.21875q0.984375 0 1.859375 -0.484375q0.890625 -0.484375 1.34375 -1.1875l0 -4.84375q-0.453125 -0.703125 -1.34375 -1.203125q-0.875 -0.515625 -1.859375 -0.515625q-1.546875 0 -2.484375 1.125q-0.9375 1.125 -0.9375 3.0q0 1.84375 0.921875 2.984375q0.921875 1.125 2.5 1.125zm9.038605 -7.171875q-0.5 0 -0.859375 -0.34375q-0.34375 -0.359375 -0.34375 -0.875q0 -0.5 0.34375 -0.84375q0.359375 -0.359375 0.859375 -0.359375q0.515625 0 0.859375 0.359375q0.359375 0.34375 0.359375 0.84375q0 0.515625 -0.359375 0.875q-0.34375 0.34375 -0.859375 0.34375zm0 8.609375q-0.5 0 -0.859375 -0.34375q-0.34375 -0.359375 -0.34375 -0.875q0 -0.5 0.34375 -0.84375q0.359375 -0.359375 0.859375 -0.359375q0.515625 0 0.859375 0.359375q0.359375 0.34375 0.359375 0.84375q0 0.515625 -0.359375 0.875q-0.34375 0.34375 -0.859375 0.34375zm5.077942 -8.609375q-0.5 0 -0.859375 -0.34375q-0.34375 -0.359375 -0.34375 -0.875q0 -0.5 0.34375 -0.84375q0.359375 -0.359375 0.859375 -0.359375q0.515625 0 0.859375 0.359375q0.359375 0.34375 0.359375 0.84375q0 0.515625 -0.359375 0.875q-0.34375 0.34375 -0.859375 0.34375zm0 8.609375q-0.5 0 -0.859375 -0.34375q-0.34375 -0.359375 -0.34375 -0.875q0 -0.5 0.34375 -0.84375q0.359375 -0.359375 0.859375 -0.359375q0.515625 0 0.859375 0.359375q0.359375 0.34375 0.359375 0.84375q0 0.515625 -0.359375 0.875q-0.34375 0.34375 -0.859375 0.34375zm9.015442 0.046875q-2.40625 0 -3.921875 -1.5625q-1.515625 -1.578125 -1.515625 -4.046875q0 -2.359375 1.5 -3.96875q1.515625 -1.609375 3.765625 -1.609375q2.296875 0 3.703125 1.59375q1.421875 1.578125 1.421875 4.125l0 0.40625l-8.640625 0q0.09375 1.640625 1.1875 2.671875q1.09375 1.015625 2.65625 1.015625q1.9375 0 3.28125 -1.34375l0.796875 1.078125q-1.625 1.640625 -4.234375 1.640625zm3.3125 -6.265625q0 -1.484375 -0.96875 -2.515625q-0.96875 -1.046875 -2.546875 -1.046875q-1.46875 0 -2.453125 1.046875q-0.984375 1.03125 -1.03125 2.515625l7.0 0zm11.211182 6.0l-3.203125 -4.375l-3.203125 4.375l-1.890625 0l4.078125 -5.46875l-3.859375 -5.1875l1.921875 0l2.953125 4.0625l2.96875 -4.0625l1.921875 0l-3.875 5.1875l4.109375 5.46875l-1.921875 0zm7.7097473 0.265625q-2.34375 0 -3.84375 -1.59375q-1.484375 -1.59375 -1.484375 -4.015625q0 -2.40625 1.484375 -3.984375q1.5 -1.59375 3.84375 -1.59375q2.46875 0 3.90625 1.84375l-1.109375 1.015625q-1.015625 -1.390625 -2.703125 -1.390625q-1.640625 0 -2.671875 1.140625q-1.015625 1.140625 -1.015625 2.96875q0 1.859375 1.015625 3.0q1.015625 1.125 2.671875 1.125q1.671875 0 2.703125 -1.390625l1.109375 1.015625q-1.4375 1.859375 -3.90625 1.859375zm11.037994 0q-2.40625 0 -3.921875 -1.5625q-1.515625 -1.578125 -1.515625 -4.046875q0 -2.359375 1.5 -3.96875q1.515625 -1.609375 3.765625 -1.609375q2.296875 0 3.703125 1.59375q1.421875 1.578125 1.421875 4.125l0 0.40625l-8.640625 0q0.09375 1.640625 1.1875 2.671875q1.09375 1.015625 2.65625 1.015625q1.9375 0 3.28125 -1.34375l0.796875 1.078125q-1.625 1.640625 -4.234375 1.640625zm3.3125 -6.265625q0 -1.484375 -0.96875 -2.515625q-0.96875 -1.046875 -2.546875 -1.046875q-1.46875 0 -2.453125 1.046875q-0.984375 1.03125 -1.03125 2.515625l7.0 0zm9.554932 6.265625q-2.265625 0 -3.59375 -1.875l0 5.671875l-1.65625 0l0 -14.71875l1.65625 0l0 1.578125q0.578125 -0.8125 1.515625 -1.328125q0.953125 -0.515625 2.078125 -0.515625q2.140625 0 3.4375 1.5q1.3125 1.5 1.3125 4.078125q0 2.5625 -1.296875 4.09375q-1.28125 1.515625 -3.453125 1.515625zm-0.421875 -1.484375q1.546875 0 2.484375 -1.125q0.9375 -1.125 0.9375 -3.0q0 -1.828125 -0.921875 -2.96875q-0.921875 -1.140625 -2.5 -1.140625q-0.984375 0 -1.859375 0.5q-0.875 0.5 -1.3125 1.203125l0 4.8125q0.4375 0.703125 1.3125 1.21875q0.875 0.5 1.859375 0.5zm10.488007 1.484375q-2.359375 0 -2.359375 -2.5l0 -6.96875l-1.765625 0l0 -1.453125l1.765625 0l0 -2.921875l1.65625 0l0 2.921875l2.171875 0l0 1.453125l-2.171875 0l0 6.625q0 0.59375 0.265625 0.984375q0.265625 0.375 0.8125 0.375q0.6875 0 1.125 -0.4375l0.5 1.234375q-0.6875 0.6875 -2.0 0.6875zm4.6159363 -12.453125q-0.4375 0 -0.765625 -0.3125q-0.328125 -0.328125 -0.328125 -0.796875q0 -0.453125 0.328125 -0.78125q0.328125 -0.34375 0.765625 -0.34375q0.46875 0 0.796875 0.34375q0.328125 0.328125 0.328125 0.78125q0 0.46875 -0.328125 0.796875q-0.328125 0.3125 -0.796875 0.3125zm-0.8125 12.1875l0 -10.65625l1.65625 0l0 10.65625l-1.65625 0zm9.62381 0.265625q-2.3125 0 -3.796875 -1.578125q-1.484375 -1.578125 -1.484375 -4.03125q0 -2.46875 1.484375 -4.015625q1.484375 -1.5625 3.796875 -1.5625q2.3125 0 3.796875 1.5625q1.484375 1.546875 1.484375 4.015625q0 2.453125 -1.484375 4.03125q-1.484375 1.578125 -3.796875 1.578125zm0 -1.484375q1.546875 0 2.53125 -1.15625q1.0 -1.15625 1.0 -2.96875q0 -1.78125 -1.0 -2.9375q-0.984375 -1.171875 -2.53125 -1.171875q-1.546875 0 -2.546875 1.15625q-1.0 1.140625 -1.0 2.953125q0 1.828125 0.984375 2.984375q1.0 1.140625 2.5625 1.140625zm15.175537 1.21875l0 -6.984375q0 -1.40625 -0.65625 -1.9375q-0.65625 -0.53125 -1.734375 -0.53125q-0.921875 0 -1.828125 0.5q-0.890625 0.5 -1.328125 1.15625l0 7.796875l-1.65625 0l0 -10.65625l1.65625 0l0 1.53125q0.6875 -0.78125 1.6875 -1.28125q1.0 -0.515625 2.109375 -0.515625q3.40625 0 3.40625 3.4375l0 7.484375l-1.65625 0zm3.243103 2.09375l0 -1.203125l12.578125 0l0 1.203125l-12.578125 0zm19.420776 -1.828125q-2.265625 0 -3.59375 -1.875l0 5.671875l-1.65625 0l0 -14.71875l1.65625 0l0 1.578125q0.578125 -0.8125 1.515625 -1.328125q0.953125 -0.515625 2.078125 -0.515625q2.140625 0 3.4375 1.5q1.3125 1.5 1.3125 4.078125q0 2.5625 -1.296875 4.09375q-1.28125 1.515625 -3.453125 1.515625zm-0.421875 -1.484375q1.546875 0 2.484375 -1.125q0.9375 -1.125 0.9375 -3.0q0 -1.828125 -0.921875 -2.96875q-0.921875 -1.140625 -2.5 -1.140625q-0.984375 0 -1.859375 0.5q-0.875 0.5 -1.3125 1.203125l0 4.8125q0.4375 0.703125 1.3125 1.21875q0.875 0.5 1.859375 0.5zm10.487976 1.484375q-2.359375 0 -2.359375 -2.5l0 -6.96875l-1.765625 0l0 -1.453125l1.765625 0l0 -2.921875l1.65625 0l0 2.921875l2.171875 0l0 1.453125l-2.171875 0l0 6.625q0 0.59375 0.265625 0.984375q0.265625 0.375 0.8125 0.375q0.6875 0 1.125 -0.4375l0.5 1.234375q-0.6875 0.6875 -2.0 0.6875zm3.8034668 -0.265625l0 -10.65625l1.65625 0l0 1.71875q1.484375 -1.953125 3.546875 -1.953125l0 1.703125l-0.65625 -0.0625q-0.75 0 -1.65625 0.546875q-0.90625 0.53125 -1.234375 1.15625l0 7.546875l-1.65625 0z" fill-rule="nonzero"/><path fill="#d9d9d9" d="m403.48096 83.72441l0 0c0 -22.691513 18.395111 -41.086617 41.08661 -41.086617l0 0c10.896851 0 21.347382 4.3287582 29.052612 12.033993c7.7052307 7.7052345 12.033997 18.155773 12.033997 29.052624l0 0c0 22.691505 -18.395111 41.08661 -41.08661 41.08661l0 0c-22.691498 0 -41.08661 -18.395103 -41.08661 -41.08661z" fill-rule="evenodd"/><path stroke="#202729" stroke-width="1.658792650918635" stroke-linejoin="round" stroke-linecap="butt" d="m403.48096 83.72441l0 0c0 -22.691513 18.395111 -41.086617 41.08661 -41.086617l0 0c10.896851 0 21.347382 4.3287582 29.052612 12.033993c7.7052307 7.7052345 12.033997 18.155773 12.033997 29.052624l0 0c0 22.691505 -18.395111 41.08661 -41.08661 41.08661l0 0c-22.691498 0 -41.08661 -18.395103 -41.08661 -41.08661z" fill-rule="evenodd"/><path fill="#000000" d="m422.6085 90.62992q-3.046875 0 -4.84375 -2.015625l0.921875 -1.1875q0.78125 0.875 1.8125 1.34375q1.046875 0.453125 2.171875 0.453125q1.359375 0 2.15625 -0.609375q0.8125 -0.609375 0.8125 -1.5625q0 -1.5 -2.34375 -2.140625q-2.78125 -0.734375 -3.546875 -1.171875q-0.765625 -0.4375 -1.1875 -1.09375q-0.40625 -0.65625 -0.40625 -1.5625q0 -1.515625 1.21875 -2.5q1.234375 -1.0 3.125 -1.0q2.828125 0 4.484375 1.765625l-0.953125 1.15625q-1.359375 -1.515625 -3.640625 -1.515625q-1.140625 0 -1.875 0.546875q-0.71875 0.546875 -0.71875 1.453125q0 0.671875 0.59375 1.140625q0.609375 0.453125 1.765625 0.734375q2.6875 0.734375 3.46875 1.21875q0.78125 0.46875 1.203125 1.15625q0.4375 0.6875 0.4375 1.671875q0 1.75 -1.265625 2.734375q-1.265625 0.984375 -3.390625 0.984375zm10.00589 -0.234375l0 -11.21875l-3.984375 0l0 -1.40625l9.578125 0l0 1.40625l-4.015625 0l0 11.21875l-1.578125 0zm15.407898 0l-1.125 -2.796875l-6.28125 0l-1.109375 2.796875l-1.796875 0l5.0625 -12.625l1.953125 0l5.09375 12.625l-1.796875 0zm-4.265625 -11.0l-2.6875 6.796875l5.359375 0l-2.671875 -6.796875zm15.013062 11.0l-3.21875 -5.015625l-2.515625 0l0 5.015625l-1.578125 0l0 -12.625l5.078125 0q1.78125 0 2.859375 1.0625q1.09375 1.0625 1.09375 2.75q0 1.578125 -0.921875 2.5625q-0.90625 0.96875 -2.34375 1.109375l3.40625 5.140625l-1.859375 0zm-2.421875 -6.390625q1.140625 0 1.828125 -0.671875q0.6875 -0.671875 0.6875 -1.75q0 -1.078125 -0.6875 -1.734375q-0.6875 -0.671875 -1.828125 -0.671875l-3.3125 0l0 4.828125l3.3125 0zm9.549591 6.390625l0 -11.21875l-3.984375 0l0 -1.40625l9.578125 0l0 1.40625l-4.015625 0l0 11.21875l-1.578125 0z" fill-rule="nonzero"/><path fill="#000000" fill-opacity="0.0" d="m415.51495 112.77703l-150.3937 91.81103" fill-rule="evenodd"/><path stroke="#4ba173" stroke-width="4.9763779527559056" stroke-linejoin="round" stroke-linecap="butt" d="m415.51492 112.77704l-124.908905 76.253296" fill-rule="evenodd"/><path fill="#4ba173" stroke="#4ba173" stroke-width="4.9763779527559056" stroke-linecap="butt" d="m286.32315 182.01466l-14.992523 18.782745l23.558258 -4.751404z" fill-rule="evenodd"/><path fill="#000000" fill-opacity="0.0" d="m473.62018 112.77703l127.90552 91.81103" fill-rule="evenodd"/><path stroke="#f1c232" stroke-width="4.9763779527559056" stroke-linejoin="round" stroke-linecap="butt" d="m473.6202 112.77704l103.64926 74.399796" fill-rule="evenodd"/><path fill="#f1c232" stroke="#f1c232" stroke-width="4.9763779527559056" stroke-linecap="butt" d="m572.4764 193.85431l23.139282 6.4914856l-13.553101 -19.846436z" fill-rule="evenodd"/><path fill="#000000" fill-opacity="0.0" d="m601.512 310.8393l-117.35431 91.87402" fill-rule="evenodd"/><path stroke="#f44747" stroke-width="4.9763779527559056" stroke-linejoin="round" stroke-linecap="butt" d="m601.512 310.8393l-93.84387 73.4682" fill-rule="evenodd"/><path fill="#f44747" stroke="#f44747" stroke-width="4.9763779527559056" stroke-linecap="butt" d="m502.60126 377.83533l-12.7152405 20.393372l22.84903 -7.4490356z" fill-rule="evenodd"/><path fill="#000000" fill-opacity="0.0" d="m601.512 310.8393l117.35431 91.87402" fill-rule="evenodd"/><path stroke="#0000ff" stroke-width="4.9763779527559056" stroke-linejoin="round" stroke-linecap="butt" d="m601.512 310.8393l93.84387 73.4682" fill-rule="evenodd"/><path fill="#0000ff" stroke="#0000ff" stroke-width="4.9763779527559056" stroke-linecap="butt" d="m690.289 390.77966l22.84906 7.449066l-12.71521 -20.393402z" fill-rule="evenodd"/><path fill="#000000" fill-opacity="0.0" d="m493.62225 257.7212l-120.59842 0" fill-rule="evenodd"/><path stroke="#4ba173" stroke-width="4.9763779527559056" stroke-linejoin="round" stroke-linecap="butt" d="m493.62225 257.72116l-90.74017 0" fill-rule="evenodd"/><path fill="#4ba173" stroke="#4ba173" stroke-width="4.9763779527559056" stroke-linecap="butt" d="m402.88208 249.50153l-22.583282 8.219635l22.583282 8.219666z" fill-rule="evenodd"/><path fill="#000000" fill-opacity="0.0" d="m601.512 204.60307c0 -29.85141 35.671326 -59.264877 68.73096 -59.702805c33.059692 -0.43792725 63.50769 28.099686 68.73096 56.418335c5.2232666 28.31865 -14.778198 56.418335 -29.556396 56.418335" fill-rule="evenodd"/><path stroke="#f1c232" stroke-width="4.9763779527559056" stroke-linejoin="round" stroke-linecap="butt" d="m611.5887 176.49654l0.09265137 -0.1288147c0.30133057 -0.41394043 0.6083374 -0.8254852 0.9208374 -1.2344971c0.625 -0.8180847 1.2720337 -1.6261292 1.9398804 -2.4233093c2.6712036 -3.188736 5.675537 -6.203415 8.938049 -8.9882965c13.050354 -11.139542 30.233093 -18.602386 46.76288 -18.82135c33.059692 -0.43792725 63.50769 28.099686 68.73096 56.41832c5.2232666 28.31865 -14.778137 56.41832 -29.556396 56.41832" fill-rule="evenodd"/><path fill="#f1c232" stroke="#f1c232" stroke-width="4.9763779527559056" stroke-linecap="butt" d="m603.85126 173.72253l0.1159668 24.032364l15.358887 -18.484375z" fill-rule="evenodd"/><path fill="#000000" fill-opacity="0.0" d="m297.8888 132.70267l70.078735 -42.80314l21.637787 35.401573l-70.078735 42.803146z" fill-rule="evenodd"/><path fill="#616161" d="m330.53644 149.45058q-2.9735718 1.8162231 -5.844879 1.0433502l0.14816284 -1.8847961q0.98080444 0.316391 2.3172302 0.19587708q1.3415833 -0.14199829 2.5550232 -0.8831482q1.3467712 -0.82258606 1.7112427 -1.8141937q0.35635376 -1.0049286 -0.18145752 -1.8848419q-0.47262573 -0.77323914 -1.5149231 -0.7408142q-1.0371094 0.010940552 -3.4187927 0.788208q-1.9934998 0.72325134 -3.4076843 0.50679016q-1.4008484 -0.22462463 -2.2156982 -1.5578156q-0.9045105 -1.4798431 -0.28814697 -3.1379395q0.60821533 -1.6714325 2.5950623 -2.884964q2.6402283 -1.6126099 5.368561 -0.9537964l-0.08743286 1.7744446q-0.9163513 -0.30082703 -2.0838623 -0.1736145q-1.1674805 0.12719727 -2.3009338 0.8194885q-1.2134094 0.7411499 -1.5808716 1.697937q-0.36743164 0.9567871 0.11331177 1.7433777q0.42373657 0.6932678 1.4497375 0.63417053q1.0393372 -0.067230225 3.3884277 -0.89782715q2.0127563 -0.66178894 3.4461975 -0.38383484q1.4386292 0.25645447 2.2860718 1.6429749q0.98599243 1.6131744 0.3059082 3.3468018q-0.6667175 1.7254791 -2.760254 3.0041656zm8.812775 -1.7575378q0.50079346 -0.049545288 1.1141663 -0.42419434q0.60006714 -0.36650085 0.85861206 -0.87228394q0.25854492 -0.5057831 0.12521362 -1.4130402l-0.3103943 -2.2455292l-12.1215515 -8.836395l1.9735107 -1.2053833l9.760651 7.22081l-1.9866638 -11.969055l1.9868164 -1.2135315l2.737793 17.66211q0.4444275 2.9143066 -1.9898376 4.474365q-0.7067261 0.43165588 -1.4393921 0.6411438l-0.70892334 -1.8190155zm18.34674 -15.233917l-4.677307 -7.652542q-0.94522095 -1.5465012 -2.0238342 -1.693306q-1.0785828 -0.14680481 -2.2653503 0.57805634q-1.0134277 0.61898804 -1.6660767 1.7682877q-0.63934326 1.141159 -0.6712036 2.1676178l5.2232666 8.545769l-1.8268127 1.115799l-7.15448 -11.705437l1.8268127 -1.115799l1.0430298 1.7064896q0.20892334 -1.3360062 0.9682312 -2.5504608q0.76452637 -1.235939 1.9779663 -1.9770889q3.7336426 -2.2804565 6.0397034 1.4924774l5.019562 8.212486l-1.8135071 1.1076508zm10.78241 -6.182953q-2.5602112 1.5637436 -5.2678223 0.8190384q-2.707611 -0.7447128 -4.3373413 -3.4111023q-1.6134033 -2.6397247 -1.0325928 -5.374649q0.57266235 -2.7482605 3.1328735 -4.312004q2.7202454 -1.6614761 5.5322876 -0.59607697l-0.5289612 1.8610306q-2.0571594 -0.84902954 -3.9106445 0.28305817q-1.8001709 1.0995026 -2.167633 3.0449905q-0.36227417 1.9240112 0.86816406 3.9371338q1.2467651 2.0397873 3.1194763 2.6169968q1.8779297 0.5557327 3.7047424 -0.5600662q1.8401489 -1.1239395 2.0446472 -3.3360672l1.8897705 0.36540222q-0.3267212 3.0008392 -3.0469666 4.6623154z" fill-rule="nonzero"/><path fill="#000000" fill-opacity="0.0" d="m520.3658 90.355225l66.834656 47.779526l-24.15747 33.795273l-66.834656 -47.779526z" fill-rule="evenodd"/><path fill="#616161" d="m515.27435 124.81258l0.9086304 -1.2711334q-2.5194092 0.54213715 -4.8074036 -1.0935135q-1.6778564 -1.1994781 -2.0422363 -3.0541763q-0.34262085 -1.8583145 0.78408813 -3.4345322q1.1539612 -1.6143417 2.9830933 -1.8624878q1.8418579 -0.23905945 3.545105 0.9785919q2.4024048 1.7174301 2.6085205 4.16967l1.435669 -2.0084q0.8086548 -1.1313171 0.44403076 -2.3139343q-0.3519287 -1.1735382 -1.5848999 -2.0549774q-1.9574585 -1.3993835 -4.5186768 -0.90631104l0.053344727 -1.7673416q3.097046 -0.5709839 5.7790527 1.3463669q2.0464478 1.4629974 2.4689941 3.2632217q0.4225464 1.8002243 -0.84954834 3.5798187l-5.479065 7.664963l-1.7286987 -1.2358246zm-2.385498 -3.1651q2.059204 1.472084 4.0664673 0.81349945l1.5083618 -2.1100922q-0.026489258 -2.1124954 -2.0856323 -3.5845795q-1.2202759 -0.872345 -2.4735718 -0.73114777q-1.2533569 0.1411972 -2.0256653 1.2216644q-0.7541809 1.0550461 -0.48217773 2.2866745q0.27197266 1.2316284 1.492218 2.103981zm10.912415 9.683487q-2.8345337 -2.0263977 -3.2457275 -4.970955l1.7929077 -0.60054016q0.092285156 1.0263062 0.725708 2.2090378q0.65527344 1.1790924 1.8119507 2.006012q1.2838135 0.91778564 2.3391113 0.86550903q1.0643921 -0.064971924 1.6641235 -0.90393066q0.52697754 -0.7372589 0.08959961 -1.6837769q-0.41558838 -0.9501419 -2.062317 -2.838028q-1.4451904 -1.5517731 -1.7988892 -2.937828q-0.34094238 -1.376976 0.567688 -2.6481094q1.008606 -1.410965 2.775879 -1.4920273q1.7764282 -0.09376526 3.6703491 1.2601852q2.5167847 1.7992172 2.9771118 4.567604l-1.6676025 0.61330414q-0.0814209 -0.960907 -0.65496826 -1.9855881q-0.5736084 -1.0246735 -1.6540527 -1.7970657q-1.1566772 -0.8269119 -2.1810913 -0.7909775q-1.0244141 0.03593445 -1.5605469 0.78590393q-0.47247314 0.6609955 -0.016906738 1.5820923q0.46826172 0.9301834 2.1513062 2.7672195q1.3961792 1.5935287 1.7008057 3.021347q0.32641602 1.4241943 -0.6185913 2.74617q-1.0994263 1.5380859 -2.9611816 1.5900421q-1.84906 0.061050415 -3.8446655 -1.3656006zm5.0635986 7.422943q0.24145508 0.44148254 0.82611084 0.8594818q0.5720215 0.40890503 1.1386719 0.44908142q0.5667114 0.04019165 1.3497314 -0.43722534l1.9456787 -1.1635742l3.3946533 -14.609909l1.8812256 1.3448715l-2.8305664 11.80558l10.241089 -6.507889l1.8939209 1.3539429l-15.187988 9.424973q-2.5089111 1.5484314 -4.8967896 -0.08180237q-0.67370605 -0.48161316 -1.1529541 -1.0739441l1.3972168 -1.3635864zm21.196777 10.927795l5.215515 -7.296341q1.0540161 -1.4745178 0.76745605 -2.5245209q-0.2866211 -1.0499878 -1.4179077 -1.8587341q-0.9660034 -0.69059753 -2.2791748 -0.84187317q-1.300415 -0.1421814 -2.2577515 0.22981262l-5.824341 8.147995l-1.741394 -1.2449036l7.977783 -11.160599l1.741394 1.2449188l-1.1630249 1.6270599q1.3114624 -0.33009338 2.7263184 -0.10612488q1.4366455 0.22033691 2.5933228 1.0472565q3.559082 2.544342 0.9876709 6.1416626l-5.597229 7.8302155l-1.7286377 -1.2358246zm9.90741 7.505295q-2.4404907 -1.7447052 -2.8136597 -4.527588q-0.3731079 -2.7828827 1.4441528 -5.325165q1.7990723 -2.5168457 4.543762 -3.0516357q2.7537231 -0.5475006 5.194275 1.1972046q2.5930176 1.8537292 2.711792 4.858124l-1.9199829 0.24084473q-0.022766113 -2.225113 -1.7896118 -3.488205q-1.7159424 -1.2267303 -3.6505127 -0.80426025q-1.9127197 0.41886902 -3.28479 2.3382874q-1.3901978 1.9448395 -1.189331 3.893921q0.22271729 1.9454651 1.9641113 3.1903687q1.7540894 1.2539978 3.8703613 0.577301l0.40252686 1.881958q-2.8900757 0.87257385 -5.4830933 -0.9811554z" fill-rule="nonzero"/><path fill="#000000" fill-opacity="0.0" d="m655.455 304.7752l58.64563 47.716553l-26.204712 32.188965l-58.64569 -47.716522z" fill-rule="evenodd"/><path fill="#616161" d="m642.29895 333.41776q-2.1573486 -1.75531 -2.345459 -4.345703q-0.17590332 -2.580536 1.6490479 -4.822235q1.8051758 -2.2174988 4.368408 -2.5693665q2.5752563 -0.34197998 4.732666 1.4133301q2.2785034 1.8539429 2.1988525 4.649475l-1.7776489 0.10467529q0.11236572 -2.0437622 -1.4511108 -3.315857q-1.5150146 -1.232666 -3.3185425 -0.94766235q-1.7937622 0.2729187 -3.164917 1.9572449q-1.4007568 1.7206421 -1.3257446 3.5341797q0.09698486 1.8112793 1.6240845 3.0538025q1.5392456 1.2523804 3.5424194 0.7470093l0.2584839 1.761383q-2.711975 0.633667 -4.9905396 -1.2202759zm12.082092 9.427643l0.9075928 -1.1147766q-2.3411255 0.35128784 -4.3530273 -1.2857056q-1.4907837 -1.2129517 -1.7128906 -2.9447632q-0.21002197 -1.7219238 0.92437744 -3.1154175q1.1541748 -1.4177246 2.8515015 -1.5474854q1.7094727 -0.119903564 3.2244263 1.1127625q2.1088867 1.7158813 2.1531982 3.987854l1.4402466 -1.769104q0.8088989 -0.9936218 0.539978 -2.098755q-0.2590332 -1.1172485 -1.3377075 -1.9949036q-1.7210693 -1.4002991 -4.1105957 -1.0884705l0.14312744 -1.6360168q2.8952026 -0.363739 5.258606 1.5592346q1.8179932 1.479187 2.0917358 3.1723938q0.28356934 1.6810608 -0.98895264 3.2442017l-5.5044556 6.7614746l-1.5271606 -1.2425232zm-2.0023193 -3.0593872q1.8058472 1.4693298 3.689209 0.9873352l1.5092773 -1.8539734q0.09942627 -1.9535828 -1.7064209 -3.4229126q-1.0786743 -0.877655 -2.2506714 -0.82403564q-1.1499634 0.0513916 -1.9292603 1.0086365q-0.7595825 0.93304443 -0.58618164 2.0812988q0.1953125 1.1459656 1.2740479 2.0236511zm13.229797 12.194519l5.238098 -6.434326q1.055542 -1.2965393 0.8441162 -2.2743225q-0.18945312 -0.980011 -1.1954346 -1.7984924q-0.8483887 -0.6903076 -2.0473633 -0.90042114q-1.1990356 -0.21011353 -2.10437 0.06048584l-5.8496704 7.1855774l-1.5271606 -1.2425232l8.000244 -9.827179l1.5270996 1.2425537l-1.1541748 1.4177246q1.2221069 -0.21426392 2.527954 0.06262207q1.3179932 0.28674316 2.3360596 1.1151123q3.1390991 2.5540771 0.5545654 5.728821l-5.622864 6.906891l-1.5270996 -1.2425232zm8.719116 7.497101q-2.1573486 -1.7553406 -2.345459 -4.3457336q-0.17590332 -2.5805054 1.6490479 -4.822235q1.8051758 -2.2174683 4.368408 -2.569336q2.5752563 -0.3420105 4.732666 1.4132996q2.2785034 1.8539429 2.1988525 4.6495056l-1.7776489 0.10467529q0.11236572 -2.0437622 -1.4511108 -3.3158875q-1.5150146 -1.232666 -3.3185425 -0.94763184q-1.7937622 0.2729187 -3.164917 1.9572144q-1.4007568 1.7206726 -1.3257446 3.5342102q0.09698486 1.8112488 1.6240845 3.0538025q1.5392456 1.2523804 3.5424194 0.74697876l0.2584839 1.761383q-2.711975 0.633667 -4.9905396 -1.2202454zm10.175903 8.279541q-2.2179565 -1.8046265 -2.4378662 -4.3806458q-0.21990967 -2.5760193 1.6444702 -4.866211q1.7658081 -2.1690063 4.36084 -2.5352478q2.5950317 -0.36624146 4.6796265 1.3299255q2.1210327 1.7257385 2.2242432 4.247101q0.115356445 2.5312195 -1.7984009 4.8819885l-0.30578613 0.37564087l-7.9628296 -6.4789124q-1.1604004 1.573822 -0.92388916 3.337494q0.24865723 1.7734985 1.690979 2.946991q1.7937622 1.4594727 4.036194 1.2293701l-0.06958008 1.5951538q-2.7382202 0.26989746 -5.1380005 -1.6826477zm7.7596436 -3.2949219q1.1147461 -1.3692627 0.9873047 -3.044159q-0.117614746 -1.6870117 -1.5598755 -2.8605042q-1.3574219 -1.1044617 -3.0457764 -0.8868103q-1.6784058 0.2055664 -2.8294678 1.545227l6.447815 5.2462463zm-0.534729 8.770538l11.058228 -13.583557l1.5270996 1.2425232l-11.058228 13.583557l-1.5270996 -1.2425232z" fill-rule="nonzero"/><path fill="#000000" fill-opacity="0.0" d="m480.19138 359.84415l72.00003 -58.771667l26.2677 32.15747l-72.0 58.771667z" fill-rule="evenodd"/><path fill="#616161" d="m513.04803 373.46158q-2.348236 1.9168091 -4.384491 -0.57598877l-5.673767 -6.945984l-1.7672424 1.4425354l-1.1861572 -1.4521179l1.7672424 -1.4425354l-2.3624573 -2.8921509l1.6462097 -1.34375l2.3624268 2.8921509l2.154602 -1.758728l1.1861572 1.4521179l-2.154602 1.758728l5.387146 6.5950317q0.48434448 0.59295654 1.0548401 0.7727051q0.5826111 0.16986084 1.1394043 -0.28463745q0.67785645 -0.5533142 0.76989746 -1.3545227l1.470398 0.836853q-0.11444092 1.2430725 -1.4096069 2.300293zm10.751526 -9.21991l-5.713318 -6.994385q-0.96868896 -1.1859131 -2.029602 -1.3485413q-1.0609131 -0.16265869 -2.3439941 0.8846741q-0.89575195 0.73117065 -1.357544 1.8947449q-0.4716797 1.1514587 -0.42330933 2.3221436l6.33609 7.7567444l-1.6583252 1.3536072l-11.980194 -14.666412l1.6582947 -1.3536072l4.5667114 5.5906677q0.029907227 -1.395935 0.6391907 -2.7000732q0.6114807 -1.3261108 1.6887512 -2.2054749q3.3892822 -2.7665405 6.1470947 0.60964966l6.128479 7.5026245l-1.6583252 1.3536377zm4.9505005 -4.040985l-8.678711 -10.624664l1.6583252 -1.3536377l1.4036255 1.7183533q-0.11694336 -3.1317139 1.9529419 -4.8212585l1.3838501 1.6941223l-0.70306396 0.47305298q-0.7504883 0.61257935 -1.213501 1.8981628q-0.46081543 1.2636108 -0.2835083 2.147522l6.1383667 7.51474l-1.6583252 1.3536072zm12.123474 -9.452332q-2.3118896 1.8871765 -5.0736694 1.5194702q-2.7617188 -0.3677063 -4.758423 -2.8121033q-2.0065918 -2.4565125 -1.795105 -5.210846q0.21148682 -2.754364 2.5234375 -4.6415405q2.2998657 -1.8772888 5.041809 -1.533783q2.7420044 0.34350586 4.748596 2.8000183q1.9967041 2.444397 1.8049316 5.222931q-0.19171143 2.7785645 -2.4915771 4.6558533zm-1.2059326 -1.4763184q1.5372925 -1.2548218 1.5786743 -3.2047424q0.043640137 -1.9718933 -1.4291382 -3.7749329q-1.453064 -1.7788391 -3.3846436 -2.1182556q-1.9293823 -0.36135864 -3.4666748 0.89346313q-1.5493774 1.264679 -1.6149902 3.234375q-0.06341553 1.9476929 1.4094238 3.7507324q1.4926147 1.8272705 3.4241943 2.1666565q1.9216919 0.32730103 3.4831543 -0.94729614zm18.120178 -12.774017l-9.740601 -6.2685547l4.1967773 10.793823l-1.6462402 1.34375l-12.067932 -7.858124l1.718811 -1.4030457l9.5095825 6.356262l-4.123108 -10.753082l1.4041138 -1.1461487l9.715393 6.188324l-4.3289185 -10.585144l1.718811 -1.4030151l5.2894897 13.391205l-1.6461792 1.34375z" fill-rule="nonzero"/><path fill="#000000" fill-opacity="0.0" d="m708.6075 102.694756l73.51184 59.086617l-26.015747 32.377945l-73.51184 -59.08661z" fill-rule="evenodd"/><path fill="#616161" d="m695.8325 130.59846q-2.3139648 -1.8598785 -2.5109253 -4.383705l1.5430298 -0.42362976q0.029785156 0.8859329 0.5081787 1.9119797q0.50042725 1.0236511 1.4503784 1.7871704q1.0473633 0.84184265 1.9476929 0.8438568q0.9003906 0.0019989014 1.4484253 -0.6800842q0.47955322 -0.5968323 0.15686035 -1.4175415q-0.31292725 -0.8328705 -1.6171265 -2.5025864q-1.151123 -1.3862839 -1.392456 -2.5826263q-0.21942139 -1.1987305 0.61242676 -2.2340546q0.9199829 -1.1449432 2.4205933 -1.1415939q1.5128174 0.013137817 3.0595093 1.2563171q2.0459595 1.6445236 2.3043213 4.017189l-1.4406128 0.44581604q-0.022583008 -0.8200226 -0.46472168 -1.7166443q-0.42993164 -0.8868332 -1.3189697 -1.6014175q-0.93774414 -0.7537384 -1.8063965 -0.7703171q-0.8685913 -0.016578674 -1.3481445 0.580246q-0.4404297 0.54811096 -0.107910156 1.356636q0.3544922 0.80612946 1.697815 2.4271164q1.1119385 1.4350052 1.2996216 2.6483078q0.1998291 1.2230988 -0.661438 2.2949524q-1.0178223 1.2667542 -2.5891113 1.2266388q-1.5712891 -0.040115356 -3.19104 -1.3420258zm12.1814575 9.410217l1.0275879 -1.2789307q-1.0032349 0.17591858 -2.2276 -0.046463013q-1.2024536 -0.2247467 -2.2132568 -1.0372314q-2.8985596 -2.3297424 -0.5692749 -5.2286377l5.157654 -6.4189835l1.4127197 1.1355057l-4.805298 5.9804993q-0.8612671 1.0718536 -0.7753906 1.9627991q0.085876465 0.89094543 1.1332397 1.7327881q0.82818604 0.66563416 1.8916626 0.83883667q1.0756226 0.18299866 1.9057617 -0.051879883l5.363159 -6.674774l1.4127197 1.1355133l-7.3009644 9.086456l-1.4127197 -1.135498zm6.923279 5.9456177q-2.3139038 -1.8598785 -2.5109253 -4.3836975l1.5430298 -0.42362976q0.029785156 0.8859253 0.50823975 1.911972q0.5003662 1.0236511 1.4503174 1.7871857q1.0473633 0.84184265 1.9477539 0.84384155q0.9003296 0.0020141602 1.4484253 -0.6800842q0.47955322 -0.5968323 0.15679932 -1.4175262q-0.31292725 -0.83288574 -1.6171265 -2.502594q-1.151062 -1.3862915 -1.392456 -2.5826263q-0.21942139 -1.1987305 0.6124878 -2.2340546q0.9199219 -1.1449432 2.4205322 -1.1416016q1.5128174 0.013137817 3.0595093 1.2563171q2.0460205 1.6445312 2.3043213 4.0171967l-1.4406128 0.44581604q-0.022583008 -0.8200226 -0.46472168 -1.7166443q-0.42993164 -0.8868408 -1.3189697 -1.6014252q-0.93774414 -0.7537384 -1.8063354 -0.77030945q-0.86865234 -0.016586304 -1.3482056 0.580246q-0.44036865 0.54811096 -0.107910156 1.3566284q0.3544922 0.8061371 1.697815 2.427124q1.1119385 1.4349976 1.2996216 2.6483154q0.1998291 1.2230835 -0.66137695 2.2949524q-1.0178833 1.2667389 -2.5891724 1.2266235q-1.5712891 -0.040100098 -3.19104 -1.3420258zm10.339233 8.310364q-1.9364014 -1.556427 -1.7649536 -4.064789l-3.885376 4.835556l-1.4127197 -1.1355133l10.080444 -12.545639l1.4127197 1.135498l-1.0863647 1.352005q1.0449829 -0.30271912 2.2011108 -0.09513855q1.168335 0.21736145 2.118225 0.980896q1.8267822 1.4683228 1.9074707 3.638031q0.08062744 2.1697083 -1.6810303 4.362152q-1.751831 2.180252 -3.8950806 2.6025543q-2.1433105 0.422287 -3.9944458 -1.0656128zm0.66467285 -1.5506287q1.3152466 1.0572052 2.8702393 0.7434082q1.5769653 -0.31617737 2.8688354 -1.9239655q1.2526855 -1.5590668 1.2342529 -3.1575775q0.003540039 -1.6009064 -1.3361206 -2.6776733q-0.85253906 -0.68522644 -1.9379272 -0.8560333q-1.0854492 -0.17080688 -1.9303589 0.13235474l-3.2981567 4.1047363q-0.11419678 0.8905029 0.2763672 1.9261017q0.4003296 1.0234375 1.2528687 1.7086487zm9.713623 9.892395q-2.0460205 -1.6445312 -2.260376 -4.0219727q-0.20220947 -2.3676453 1.4909058 -4.4748383q1.6148071 -2.009735 3.989685 -2.3460846q2.3847046 -0.34854126 4.296753 1.1882935q1.9607544 1.576004 2.0679321 3.8873138q0.11932373 2.321106 -1.6227417 4.4891815l-0.28381348 0.35324097l-7.343689 -5.902664q-1.0426636 1.4472809 -0.8217163 3.0682068q0.23309326 1.6307068 1.5605469 2.6976929q1.656311 1.3312836 3.7210693 1.1064911l-0.052001953 1.4617004q-2.513855 0.28479004 -4.7425537 -1.5065613zm7.121887 -3.0761108q1.0080566 -1.2545776 0.89434814 -2.809372q-0.113708496 -1.5547943 -1.4533691 -2.6315613q-1.2543945 -1.008255 -2.809204 -0.79452515q-1.5425415 0.22351074 -2.5871582 1.4487152l5.9553833 4.786743zm5.6845093 12.988617l4.77594 -5.9439697q0.9689331 -1.2058411 0.770813 -2.1067963q-0.18591309 -0.89115906 -1.1115112 -1.6351166q-0.77941895 -0.6264801 -1.8892212 -0.8168793q-1.1098022 -0.19038391 -1.925354 0.07624817l-5.3338013 6.6382294l-1.4127197 -1.1355133l7.3009644 -9.086456l1.4127197 1.1355133l-1.0569458 1.3154602q1.1106567 -0.20983887 2.305664 0.049072266q1.217041 0.2565155 2.1547852 1.0102539q2.8984985 2.3297424 0.539917 5.2651825l-5.1185303 6.37027l-1.4127197 -1.135498zm10.811523 8.690002l1.0863647 -1.352005q-1.05719 0.29292297 -2.2230835 0.09753418q-1.1561279 -0.20758057 -2.106079 -0.97109985q-1.8267822 -1.4683228 -1.8878174 -3.6623993q-0.06109619 -2.1940613 1.6712036 -4.3499756q1.751831 -2.180252 3.897461 -2.5805817q2.1676636 -0.40270996 3.9822998 1.0558167q0.9133911 0.73417664 1.3624268 1.7967529q0.47106934 1.0601959 0.41229248 2.2558594l3.885376 -4.835556l1.4127197 1.1355133l-10.080444 12.545639l-1.4127197 -1.135498zm-1.8961182 -3.2280273q0.852478 0.68522644 1.9281616 0.86820984q1.0878296 0.19277954 1.9448853 -0.10058594l3.3079834 -4.116928q0.111816406 -0.9124603 -0.3007202 -1.9456787q-0.39056396 -1.035614 -1.243103 -1.7208252q-1.3153076 -1.0572052 -2.892212 -0.74102783q-1.5648193 0.3259735 -2.8468628 1.9215851q-1.2527466 1.5590668 -1.2440796 3.169754q0.018493652 1.598526 1.3459473 2.6654968z" fill-rule="nonzero"/><path fill="#000000" fill-opacity="0.0" d="m377.04068 207.69894l112.566925 0l0 41.51181l-112.566925 0z" fill-rule="evenodd"/><path fill="#616161" d="m385.10562 238.22203q-2.78125 0 -4.5625 -1.890625q-1.765625 -1.890625 -1.765625 -4.78125q0 -2.859375 1.765625 -4.75q1.78125 -1.890625 4.5625 -1.890625q2.9375 0 4.640625 2.21875l-1.3125 1.203125q-1.203125 -1.65625 -3.21875 -1.65625q-1.953125 0 -3.171875 1.359375q-1.21875 1.34375 -1.21875 3.515625q0 2.21875 1.203125 3.578125q1.21875 1.34375 3.1875 1.34375q1.984375 0 3.21875 -1.65625l1.3125 1.203125q-1.703125 2.203125 -4.640625 2.203125zm12.931213 0q-2.75 0 -4.515625 -1.875q-1.75 -1.875 -1.75 -4.796875q0 -2.9375 1.75 -4.78125q1.765625 -1.859375 4.515625 -1.859375q2.765625 0 4.515625 1.859375q1.765625 1.84375 1.765625 4.78125q0 2.921875 -1.765625 4.796875q-1.75 1.875 -4.515625 1.875zm0 -1.75q1.84375 0 3.015625 -1.375q1.1875 -1.390625 1.1875 -3.546875q0 -2.125 -1.1875 -3.5q-1.171875 -1.375 -3.015625 -1.375q-1.828125 0 -3.03125 1.375q-1.1875 1.359375 -1.1875 3.5q0 2.1875 1.171875 3.5625q1.1875 1.359375 3.046875 1.359375zm7.436798 3.9375l0 -1.453125l14.96875 0l0 1.453125l-14.96875 0zm16.851807 -2.5l0 -12.671875l1.96875 0l0 2.046875q1.765625 -2.3125 4.21875 -2.3125l0 2.015625l-0.78125 -0.078125q-0.890625 0 -1.96875 0.640625q-1.078125 0.640625 -1.46875 1.375l0 8.984375l-1.96875 0zm14.381226 0.3125q-2.859375 0 -4.65625 -1.859375q-1.796875 -1.859375 -1.796875 -4.8125q0 -2.796875 1.78125 -4.71875q1.78125 -1.921875 4.46875 -1.921875q2.734375 0 4.40625 1.890625q1.6875 1.890625 1.6875 4.921875l0 0.484375l-10.265625 0q0.09375 1.953125 1.390625 3.171875q1.3125 1.21875 3.171875 1.21875q2.3125 0 3.90625 -1.59375l0.953125 1.28125q-1.953125 1.9375 -5.046875 1.9375zm3.9375 -7.453125q0 -1.765625 -1.15625 -2.984375q-1.15625 -1.234375 -3.015625 -1.234375q-1.75 0 -2.921875 1.234375q-1.171875 1.21875 -1.21875 2.984375l8.3125 0zm8.325562 7.453125q-2.8125 0 -2.8125 -2.96875l0 -8.296875l-2.09375 0l0 -1.71875l2.09375 0l0 -3.46875l1.96875 0l0 3.46875l2.578125 0l0 1.71875l-2.578125 0l0 7.875q0 0.71875 0.3125 1.1875q0.328125 0.453125 0.984375 0.453125q0.8125 0 1.328125 -0.53125l0.578125 1.46875q-0.8125 0.8125 -2.359375 0.8125zm13.076843 -0.3125l0 -1.78125q-0.734375 0.84375 -1.921875 1.46875q-1.1875 0.625 -2.59375 0.625q-4.046875 0 -4.046875 -4.046875l0 -8.9375l1.96875 0l0 8.34375q0 1.5 0.671875 2.203125q0.6875 0.6875 2.15625 0.6875q1.15625 0 2.171875 -0.578125q1.03125 -0.578125 1.59375 -1.34375l0 -9.3125l1.96875 0l0 12.671875l-1.96875 0zm5.901184 0l0 -12.671875l1.96875 0l0 2.046875q1.765625 -2.3125 4.21875 -2.3125l0 2.015625l-0.78125 -0.078125q-0.890625 0 -1.96875 0.640625q-1.078125 0.640625 -1.46875 1.375l0 8.984375l-1.96875 0zm17.224945 0l0 -8.296875q0 -1.671875 -0.78125 -2.296875q-0.765625 -0.640625 -2.0625 -0.640625q-1.09375 0 -2.15625 0.59375q-1.0625 0.59375 -1.59375 1.375l0 9.265625l-1.96875 0l0 -12.671875l1.96875 0l0 1.828125q0.8125 -0.9375 2.0 -1.546875q1.203125 -0.609375 2.515625 -0.609375q4.046875 0 4.046875 4.09375l0 8.90625l-1.96875 0z" fill-rule="nonzero"/></g></svg>