<?xml version="1.0" encoding="UTF-8" standalone="no"?>
<svg
   version="1.1"
   viewBox="140 30 699.213 491.33858"
   fill="none"
   stroke="none"
   stroke-linecap="square"
   stroke-miterlimit="10"
   id="svg107"
   width="185.00011mm"
   height="130mm"
   xmlns="http://www.w3.org/2000/svg"
   xmlns:svg="http://www.w3.org/2000/svg">
  <defs
     id="defs111" />
  <clipPath
     id="g3b992d5e7de_0_0.0">
    <path
       d="M 0,0 H 960 V 540 H 0 Z"
       clip-rule="nonzero"
       id="path2" />
  </clipPath>
  <g
     clip-path="url(#g3b992d5e7de_0_0.0)"
     id="g105">
    <path
       fill="#a4c2f4"
       d="M 610.9743,402.7156 H 826.75384 V 508.95184 H 610.9743 Z"
       fill-rule="evenodd"
       id="path7" />
    <path
       stroke="#202729"
       stroke-width="1.65879"
       stroke-linejoin="round"
       stroke-linecap="butt"
       d="M 610.9743,402.7156 H 826.75384 V 508.95184 H 610.9743 Z"
       fill-rule="evenodd"
       id="path9" />
    <path
       fill="#000000"
       d="m 644.8162,454.4384 q -4.5625,0 -7.59375,-3 -3.03125,-3.01563 -3.03125,-7.6875 0,-4.67188 3.03125,-7.67188 3.03125,-3 7.59375,-3 4.90625,0 7.82812,4.07813 l -2.17187,1.21875 q -0.89063,-1.3125 -2.40625,-2.15625 -1.5,-0.85938 -3.25,-0.85938 -3.4375,0 -5.70313,2.39063 -2.26562,2.39062 -2.26562,6 0,3.65625 2.25,6.03125 2.25,2.35937 5.71875,2.35937 1.75,0 3.25,-0.82812 1.51562,-0.84375 2.40625,-2.17188 l 2.20312,1.20313 q -3,4.09375 -7.85937,4.09375 z m 25.76892,-0.375 -1.8125,-4.57813 h -10.28125 l -1.82813,4.57813 h -2.9375 l 8.29688,-20.64063 h 3.1875 l 8.32812,20.64063 z m -6.95313,-17.98438 -4.40625,11.10938 h 8.76563 z m 27.21094,17.98438 -12.04687,-16.46875 v 16.46875 h -2.5625 v -20.64063 h 2.625 l 11.89062,16.125 v -16.125 h 2.5625 v 20.64063 z m 17.08673,0.375 q -4.5625,0 -7.59375,-3 -3.03125,-3.01563 -3.03125,-7.6875 0,-4.67188 3.03125,-7.67188 3.03125,-3 7.59375,-3 4.90625,0 7.82813,4.07813 l -2.17188,1.21875 q -0.89062,-1.3125 -2.40625,-2.15625 -1.5,-0.85938 -3.25,-0.85938 -3.4375,0 -5.70312,2.39063 -2.26563,2.39062 -2.26563,6 0,3.65625 2.25,6.03125 2.25,2.35937 5.71875,2.35937 1.75,0 3.25,-0.82812 1.51563,-0.84375 2.40625,-2.17188 l 2.20313,1.20313 q -3,4.09375 -7.85938,4.09375 z m 11.14307,-0.375 v -20.64063 h 13.51562 v 2.28125 h -10.95312 v 6.65625 h 10.73437 v 2.29688 h -10.73437 v 7.10937 h 10.95312 v 2.29688 z m 17.61237,0 v -20.64063 h 2.5625 v 18.34375 h 9.59375 v 2.29688 z m 15.78613,0 v -20.64063 h 2.5625 v 18.34375 h 9.59375 v 2.29688 z m 15.78613,0 v -20.64063 h 13.51563 v 2.28125 h -10.95313 v 6.65625 h 10.73438 v 2.29688 h -10.73438 v 7.10937 h 10.95313 v 2.29688 z m 17.61231,0 v -20.64063 h 7.04687 q 4.70313,0 7.64063,2.92188 2.95312,2.92187 2.95312,7.40625 0,4.53125 -2.96875,7.42187 -2.95312,2.89063 -7.625,2.89063 z m 7.04687,-2.29688 q 3.53125,0 5.71875,-2.20312 2.20313,-2.21875 2.20313,-5.8125 0,-3.57813 -2.17188,-5.8125 -2.15625,-2.23438 -5.75,-2.23438 h -4.48437 v 16.0625 z"
       fill-rule="nonzero"
       id="path11" />
    <path
       fill="#000000"
       d="m 647.634,482.53336 v -1.21875 q -1.34375,1.48438 -3.53125,1.48438 -1.625,0 -2.6875,-1.01563 -1.04687,-1.01562 -1.04687,-2.51562 0,-1.54688 1.04687,-2.53125 1.04688,-0.98438 2.6875,-0.98438 2.29688,0 3.53125,1.45313 v -1.90625 q 0,-1.09375 -0.76562,-1.67188 -0.76563,-0.59375 -1.9375,-0.59375 -1.875,0 -3.26563,1.48438 l -0.76562,-1.14063 q 1.70312,-1.76562 4.25,-1.76562 1.96875,0 3.04687,0.95312 1.09375,0.9375 1.09375,2.64063 v 7.32812 z m -2.9375,-0.92187 q 1.96875,0 2.9375,-1.32813 v -2.01562 q -0.96875,-1.3125 -2.9375,-1.3125 -1.17187,0 -1.90625,0.65625 -0.71875,0.64062 -0.71875,1.67187 0,1.01563 0.71875,1.67188 0.73438,0.65625 1.90625,0.65625 z m 11.27576,1.1875 q -2.71875,0 -4.29688,-1.67188 l 0.85938,-1.20312 q 0.53125,0.625 1.46875,1.07812 0.9375,0.45313 2.03125,0.45313 1.25,0 1.875,-0.51563 0.64062,-0.53125 0.64062,-1.32812 0,-0.70313 -0.70312,-1.10938 -0.6875,-0.40625 -2.57813,-0.84375 -1.60937,-0.32812 -2.46875,-1.04687 -0.84375,-0.71875 -0.84375,-1.9375 0,-1.34375 1.07813,-2.20313 1.07812,-0.85937 2.89062,-0.85937 2.40625,0 3.95313,1.53125 l -0.76563,1.15625 q -0.48437,-0.57813 -1.3125,-0.95313 -0.82812,-0.39062 -1.875,-0.39062 -1.09375,0 -1.73437,0.48437 -0.625,0.48438 -0.625,1.1875 0,0.64063 0.70312,1.01563 0.71875,0.375 2.60938,0.78125 1.60937,0.375 2.45312,1.14062 0.84375,0.75 0.84375,2.01563 0,1.46875 -1.15625,2.34375 -1.14062,0.875 -3.04687,0.875 z m 6.56317,2.40625 q 0.34375,0.17187 0.90625,0.17187 0.54687,0 0.92187,-0.23437 0.375,-0.21875 0.65625,-0.89063 l 0.71875,-1.60937 -4.46875,-10.76563 h 1.79688 l 3.54687,8.73438 3.53125,-8.73438 h 1.8125 l -5.34375,12.8125 q -0.875,2.125 -3.125,2.17188 -0.64062,0 -1.21875,-0.15625 z m 18.34949,-2.67188 v -6.98437 q 0,-1.40625 -0.65625,-1.9375 -0.65625,-0.53125 -1.73438,-0.53125 -0.92187,0 -1.82812,0.5 -0.89063,0.5 -1.32813,1.15625 v 7.79687 h -1.65625 v -10.65625 h 1.65625 v 1.53125 q 0.6875,-0.78125 1.6875,-1.28125 1,-0.51562 2.10938,-0.51562 3.40625,0 3.40625,3.4375 v 7.48437 z m 9.66497,0.26563 q -2.34375,0 -3.84375,-1.59375 -1.48437,-1.59375 -1.48437,-4.01563 0,-2.40625 1.48437,-3.98437 1.5,-1.59375 3.84375,-1.59375 2.46875,0 3.90625,1.84375 l -1.10937,1.01562 q -1.01563,-1.39062 -2.70313,-1.39062 -1.64062,0 -2.67187,1.14062 -1.01563,1.14063 -1.01563,2.96875 0,1.85938 1.01563,3 1.01562,1.125 2.67187,1.125 1.67188,0 2.70313,-1.39062 l 1.10937,1.01562 q -1.4375,1.85938 -3.90625,1.85938 z m 7.10053,-8.65625 q -0.5,0 -0.85938,-0.34375 -0.34375,-0.35938 -0.34375,-0.875 0,-0.5 0.34375,-0.84375 0.35938,-0.35938 0.85938,-0.35938 0.51562,0 0.85937,0.35938 0.35938,0.34375 0.35938,0.84375 0,0.51562 -0.35938,0.875 -0.34375,0.34375 -0.85937,0.34375 z m 0,8.60937 q -0.5,0 -0.85938,-0.34375 -0.34375,-0.35937 -0.34375,-0.875 0,-0.5 0.34375,-0.84375 0.35938,-0.35937 0.85938,-0.35937 0.51562,0 0.85937,0.35937 0.35938,0.34375 0.35938,0.84375 0,0.51563 -0.35938,0.875 -0.34375,0.34375 -0.85937,0.34375 z m 5.07794,-8.60937 q -0.5,0 -0.85937,-0.34375 -0.34375,-0.35938 -0.34375,-0.875 0,-0.5 0.34375,-0.84375 0.35937,-0.35938 0.85937,-0.35938 0.51563,0 0.85938,0.35938 0.35937,0.34375 0.35937,0.84375 0,0.51562 -0.35937,0.875 -0.34375,0.34375 -0.85938,0.34375 z m 0,8.60937 q -0.5,0 -0.85937,-0.34375 -0.34375,-0.35937 -0.34375,-0.875 0,-0.5 0.34375,-0.84375 0.35937,-0.35937 0.85937,-0.35937 0.51563,0 0.85938,0.35937 0.35937,0.34375 0.35937,0.84375 0,0.51563 -0.35937,0.875 -0.34375,0.34375 -0.85938,0.34375 z m 8.90607,0.0469 q -2.34375,0 -3.84375,-1.59375 -1.48438,-1.59375 -1.48438,-4.01563 0,-2.40625 1.48438,-3.98437 1.5,-1.59375 3.84375,-1.59375 2.46875,0 3.90625,1.84375 l -1.10938,1.01562 q -1.01562,-1.39062 -2.70312,-1.39062 -1.64063,0 -2.67188,1.14062 -1.01562,1.14063 -1.01562,2.96875 0,1.85938 1.01562,3 1.01563,1.125 2.67188,1.125 1.67187,0 2.70312,-1.39062 l 1.10938,1.01562 q -1.4375,1.85938 -3.90625,1.85938 z m 12.8974,-0.26563 v -1.21875 q -1.34375,1.48438 -3.53125,1.48438 -1.625,0 -2.6875,-1.01563 -1.04688,-1.01562 -1.04688,-2.51562 0,-1.54688 1.04688,-2.53125 1.04687,-0.98438 2.6875,-0.98438 2.29687,0 3.53125,1.45313 v -1.90625 q 0,-1.09375 -0.76563,-1.67188 -0.76562,-0.59375 -1.9375,-0.59375 -1.875,0 -3.26562,1.48438 l -0.76563,-1.14063 q 1.70313,-1.76562 4.25,-1.76562 1.96875,0 3.04688,0.95312 1.09375,0.9375 1.09375,2.64063 v 7.32812 z m -2.9375,-0.92187 q 1.96875,0 2.9375,-1.32813 v -2.01562 q -0.96875,-1.3125 -2.9375,-1.3125 -1.17188,0 -1.90625,0.65625 -0.71875,0.64062 -0.71875,1.67187 0,1.01563 0.71875,1.67188 0.73437,0.65625 1.90625,0.65625 z m 15.10388,0.92187 v -6.98437 q 0,-1.40625 -0.65625,-1.9375 -0.65625,-0.53125 -1.73438,-0.53125 -0.92187,0 -1.82812,0.5 -0.89063,0.5 -1.32813,1.15625 v 7.79687 h -1.65625 v -10.65625 h 1.65625 v 1.53125 q 0.6875,-0.78125 1.6875,-1.28125 1,-0.51562 2.10938,-0.51562 3.40625,0 3.40625,3.4375 v 7.48437 z m 9.66498,0.26563 q -2.34375,0 -3.84375,-1.59375 -1.48438,-1.59375 -1.48438,-4.01563 0,-2.40625 1.48438,-3.98437 1.5,-1.59375 3.84375,-1.59375 2.46875,0 3.90625,1.84375 l -1.10938,1.01562 q -1.01562,-1.39062 -2.70312,-1.39062 -1.64063,0 -2.67188,1.14062 -1.01562,1.14063 -1.01562,2.96875 0,1.85938 1.01562,3 1.01563,1.125 2.67188,1.125 1.67187,0 2.70312,-1.39062 l 1.10938,1.01562 q -1.4375,1.85938 -3.90625,1.85938 z m 11.03802,0 q -2.40625,0 -3.92187,-1.5625 -1.51563,-1.57813 -1.51563,-4.04688 0,-2.35937 1.5,-3.96875 1.51563,-1.60937 3.76563,-1.60937 2.29687,0 3.70312,1.59375 1.42188,1.57812 1.42188,4.125 v 0.40625 h -8.64063 q 0.0937,1.64062 1.1875,2.67187 1.09375,1.01563 2.65625,1.01563 1.9375,0 3.28125,-1.34375 l 0.79688,1.07812 q -1.625,1.64063 -4.23438,1.64063 z m 3.3125,-6.26563 q 0,-1.48437 -0.96875,-2.51562 -0.96875,-1.04688 -2.54687,-1.04688 -1.46875,0 -2.45313,1.04688 -0.98437,1.03125 -1.03125,2.51562 z m 4.30493,6 v -14.71875 h 1.65625 v 14.71875 z m 4.96753,0 v -14.71875 h 1.65625 v 14.71875 z m 9.78009,0.26563 q -2.40625,0 -3.92187,-1.5625 -1.51563,-1.57813 -1.51563,-4.04688 0,-2.35937 1.5,-3.96875 1.51563,-1.60937 3.76563,-1.60937 2.29687,0 3.70312,1.59375 1.42188,1.57812 1.42188,4.125 v 0.40625 h -8.64063 q 0.0937,1.64062 1.1875,2.67187 1.09375,1.01563 2.65625,1.01563 1.9375,0 3.28125,-1.34375 l 0.79688,1.07812 q -1.625,1.64063 -4.23438,1.64063 z m 3.3125,-6.26563 q 0,-1.48437 -0.96875,-2.51562 -0.96875,-1.04688 -2.54687,-1.04688 -1.46875,0 -2.45313,1.04688 -0.98437,1.03125 -1.03125,2.51562 z m 12.03931,6 v -1.59375 q -0.60937,0.82813 -1.54687,1.34375 -0.9375,0.51563 -2.0625,0.51563 -2.14063,0 -3.45313,-1.51563 -1.29687,-1.53125 -1.29687,-4.07812 0,-2.54688 1.3125,-4.0625 1.32812,-1.53125 3.4375,-1.53125 1.07812,0 2.01562,0.5 0.95313,0.48437 1.59375,1.375 v -5.67188 h 1.64063 v 14.71875 z m -3.20312,-1.21875 q 0.98437,0 1.85937,-0.48437 0.89063,-0.48438 1.34375,-1.1875 v -4.84375 q -0.45312,-0.70313 -1.34375,-1.20313 -0.875,-0.51562 -1.85937,-0.51562 -1.54688,0 -2.48438,1.125 -0.9375,1.125 -0.9375,3 0,1.84375 0.92188,2.98437 0.92187,1.125 2.5,1.125 z"
       fill-rule="nonzero"
       id="path13" />
    <path
       fill="#fff176"
       d="M 493.62225,204.60307 H 709.40179 V 310.83929 H 493.62225 Z"
       fill-rule="evenodd"
       id="path15" />
    <path
       stroke="#202729"
       stroke-width="1.65879"
       stroke-linejoin="round"
       stroke-linecap="butt"
       d="M 493.62225,204.60307 H 709.40179 V 310.83929 H 493.62225 Z"
       fill-rule="evenodd"
       id="path17" />
    <path
       fill="#000000"
       d="m 564.76276,255.95084 v -20.64063 h 9.1875 q 2.625,0 4.20312,1.4375 1.57813,1.4375 1.57813,3.8125 0,1.82813 -1,3.10938 -1,1.26562 -2.60938,1.64062 1.64063,0.23438 2.82813,1.73438 1.1875,1.48437 1.1875,3.32812 0,2.54688 -1.59375,4.0625 -1.59375,1.51563 -4.375,1.51563 z m 8.75,-11.70313 q 1.76562,0 2.65625,-0.9375 0.90625,-0.95312 0.90625,-2.375 0,-1.39062 -0.90625,-2.35937 -0.89063,-0.98438 -2.65625,-0.98438 h -6.1875 v 6.65625 z m 0.125,9.40625 q 1.82812,0 2.82812,-0.9375 1.01563,-0.9375 1.01563,-2.60937 0,-1.57813 -1.0625,-2.5625 -1.04688,-1 -2.78125,-1 h -6.3125 v 7.10937 z m 19.00079,2.67188 q -3.98437,0 -6.20312,-2.1875 -2.20313,-2.1875 -2.20313,-6.20313 v -12.625 h 2.5625 v 12.5625 q 0,2.84375 1.48438,4.5 1.48437,1.65625 4.35937,1.65625 2.89063,0 4.375,-1.65625 1.48438,-1.65625 1.48438,-4.5 v -12.5625 h 2.5625 v 12.59375 q 0,4.01563 -2.17188,6.21875 -2.15625,2.20313 -6.25,2.20313 z m 19.93286,0 q -4.98437,0 -7.92187,-3.28125 l 1.51562,-1.95313 q 1.28125,1.42188 2.96875,2.1875 1.70313,0.75 3.53125,0.75 2.23438,0 3.54688,-0.98437 1.3125,-1 1.3125,-2.57813 0,-2.4375 -3.82813,-3.48437 -4.54687,-1.21875 -5.8125,-1.92188 -1.25,-0.71875 -1.92187,-1.78125 -0.65625,-1.07812 -0.65625,-2.5625 0,-2.46875 1.98437,-4.09375 2,-1.625 5.10938,-1.625 4.64062,0 7.32812,2.875 l -1.54687,1.89063 q -2.23438,-2.48438 -5.96875,-2.48438 -1.85938,0 -3.0625,0.90625 -1.1875,0.89063 -1.1875,2.375 0,1.09375 0.98437,1.85938 1,0.75 2.89063,1.21875 4.39062,1.20312 5.67187,1.98437 1.29688,0.76563 1.98438,1.89063 0.70312,1.125 0.70312,2.73437 0,2.85938 -2.07812,4.46875 -2.07813,1.60938 -5.54688,1.60938 z m 17.15699,-0.375 v -8.73438 l -8.14063,-11.90625 h 3 l 6.40625,9.59375 6.40625,-9.59375 h 3 l -8.10937,11.90625 v 8.73438 z"
       fill-rule="nonzero"
       id="path19" />
    <path
       fill="#000000"
       d="m 528.8431,284.68643 q -2.34375,0 -3.84375,-1.59375 -1.48437,-1.59375 -1.48437,-4.01563 0,-2.40625 1.48437,-3.98437 1.5,-1.59375 3.84375,-1.59375 2.46875,0 3.90625,1.84375 l -1.10937,1.01562 q -1.01563,-1.39062 -2.70313,-1.39062 -1.64062,0 -2.67187,1.14062 -1.01563,1.14063 -1.01563,2.96875 0,1.85938 1.01563,3 1.01562,1.125 2.67187,1.125 1.67188,0 2.70313,-1.39062 l 1.10937,1.01562 q -1.4375,1.85938 -3.90625,1.85938 z m 10.88177,0 q -2.3125,0 -3.79687,-1.57813 -1.48438,-1.57812 -1.48438,-4.03125 0,-2.46875 1.48438,-4.01562 1.48437,-1.5625 3.79687,-1.5625 2.3125,0 3.79688,1.5625 1.48437,1.54687 1.48437,4.01562 0,2.45313 -1.48437,4.03125 -1.48438,1.57813 -3.79688,1.57813 z m 0,-1.48438 q 1.54688,0 2.53125,-1.15625 1,-1.15625 1,-2.96875 0,-1.78125 -1,-2.9375 -0.98437,-1.17187 -2.53125,-1.17187 -1.54687,0 -2.54687,1.15625 -1,1.14062 -1,2.95312 0,1.82813 0.98437,2.98438 1,1.14062 2.5625,1.14062 z m 7.97236,1.21875 v -10.65625 h 1.65625 v 1.71875 q 1.48437,-1.95312 3.54687,-1.95312 v 1.70312 l -0.65625,-0.0625 q -0.75,0 -1.65625,0.54688 -0.90625,0.53125 -1.23437,1.15625 v 7.54687 z m 11.94201,0.26563 q -2.3125,0 -3.79687,-1.57813 -1.48438,-1.57812 -1.48438,-4.03125 0,-2.46875 1.48438,-4.01562 1.48437,-1.5625 3.79687,-1.5625 2.3125,0 3.79688,1.5625 1.48437,1.54687 1.48437,4.01562 0,2.45313 -1.48437,4.03125 -1.48438,1.57813 -3.79688,1.57813 z m 0,-1.48438 q 1.54688,0 2.53125,-1.15625 1,-1.15625 1,-2.96875 0,-1.78125 -1,-2.9375 -0.98437,-1.17187 -2.53125,-1.17187 -1.54687,0 -2.54687,1.15625 -1,1.14062 -1,2.95312 0,1.82813 0.98437,2.98438 1,1.14062 2.5625,1.14062 z m 10.65991,1.48438 q -2.35937,0 -2.35937,-2.5 v -6.96875 h -1.76563 v -1.45313 h 1.76563 v -2.92187 h 1.65625 v 2.92187 h 2.17187 v 1.45313 h -2.17187 v 6.625 q 0,0.59375 0.26562,0.98437 0.26563,0.375 0.8125,0.375 0.6875,0 1.125,-0.4375 l 0.5,1.23438 q -0.6875,0.6875 -2,0.6875 z m 4.61591,-12.45313 q -0.4375,0 -0.76562,-0.3125 -0.32813,-0.32812 -0.32813,-0.79687 0,-0.45313 0.32813,-0.78125 0.32812,-0.34375 0.76562,-0.34375 0.46875,0 0.79688,0.34375 0.32812,0.32812 0.32812,0.78125 0,0.46875 -0.32812,0.79687 -0.32813,0.3125 -0.79688,0.3125 z m -0.8125,12.1875 v -10.65625 h 1.65625 v 10.65625 z m 12.17072,0 v -6.98437 q 0,-1.40625 -0.65625,-1.9375 -0.65625,-0.53125 -1.73438,-0.53125 -0.92187,0 -1.82812,0.5 -0.89063,0.5 -1.32813,1.15625 v 7.79687 h -1.65625 v -10.65625 h 1.65625 v 1.53125 q 0.6875,-0.78125 1.6875,-1.28125 1,-0.51562 2.10938,-0.51562 3.40625,0 3.40625,3.4375 v 7.48437 z m 9.77435,0.26563 q -2.40625,0 -3.92188,-1.5625 -1.51562,-1.57813 -1.51562,-4.04688 0,-2.35937 1.5,-3.96875 1.51562,-1.60937 3.76562,-1.60937 2.29688,0 3.70313,1.59375 1.42187,1.57812 1.42187,4.125 v 0.40625 h -8.64062 q 0.0937,1.64062 1.1875,2.67187 1.09375,1.01563 2.65625,1.01563 1.9375,0 3.28125,-1.34375 l 0.79687,1.07812 q -1.625,1.64063 -4.23437,1.64063 z m 3.3125,-6.26563 q 0,-1.48437 -0.96875,-2.51562 -0.96875,-1.04688 -2.54688,-1.04688 -1.46875,0 -2.45312,1.04688 -0.98438,1.03125 -1.03125,2.51562 z m 2.58618,8.09375 v -1.20312 h 12.57813 v 1.20312 z m 21.38953,-2.09375 v -7.01562 q 0,-1.20313 -0.5625,-1.8125 -0.5625,-0.625 -1.84375,-0.625 -0.90625,0 -1.76563,0.46875 -0.84375,0.46875 -1.39062,1.1875 v 7.79687 h -1.65625 v -14.71875 h 1.65625 v 5.59375 q 0.70312,-0.8125 1.71875,-1.29687 1.01562,-0.5 2.09375,-0.5 3.40625,0 3.40625,3.39062 v 7.53125 z m 11.64019,0 v -1.21875 q -1.34375,1.48438 -3.53125,1.48438 -1.625,0 -2.6875,-1.01563 -1.04687,-1.01562 -1.04687,-2.51562 0,-1.54688 1.04687,-2.53125 1.04688,-0.98438 2.6875,-0.98438 2.29688,0 3.53125,1.45313 v -1.90625 q 0,-1.09375 -0.76562,-1.67188 -0.76563,-0.59375 -1.9375,-0.59375 -1.875,0 -3.26563,1.48438 l -0.76562,-1.14063 q 1.70312,-1.76562 4.25,-1.76562 1.96875,0 3.04687,0.95312 1.09375,0.9375 1.09375,2.64063 v 7.32812 z m -2.9375,-0.92187 q 1.96875,0 2.9375,-1.32813 v -2.01562 q -0.96875,-1.3125 -2.9375,-1.3125 -1.17187,0 -1.90625,0.65625 -0.71875,0.64062 -0.71875,1.67187 0,1.01563 0.71875,1.67188 0.73438,0.65625 1.90625,0.65625 z m 15.10389,0.92187 v -6.98437 q 0,-1.40625 -0.65625,-1.9375 -0.65625,-0.53125 -1.73438,-0.53125 -0.92187,0 -1.82812,0.5 -0.89063,0.5 -1.32813,1.15625 v 7.79687 h -1.65625 v -10.65625 h 1.65625 v 1.53125 q 0.6875,-0.78125 1.6875,-1.28125 1,-0.51562 2.10938,-0.51562 3.40625,0 3.40625,3.4375 v 7.48437 z m 12.69622,0 v -1.59375 q -0.60937,0.82813 -1.54687,1.34375 -0.9375,0.51563 -2.0625,0.51563 -2.14063,0 -3.45313,-1.51563 -1.29687,-1.53125 -1.29687,-4.07812 0,-2.54688 1.3125,-4.0625 1.32812,-1.53125 3.4375,-1.53125 1.07812,0 2.01562,0.5 0.95313,0.48437 1.59375,1.375 v -5.67188 h 1.64063 v 14.71875 z m -3.20312,-1.21875 q 0.98437,0 1.85937,-0.48437 0.89063,-0.48438 1.34375,-1.1875 v -4.84375 q -0.45312,-0.70313 -1.34375,-1.20313 -0.875,-0.51562 -1.85937,-0.51562 -1.54688,0 -2.48438,1.125 -0.9375,1.125 -0.9375,3 0,1.84375 0.92188,2.98437 0.92187,1.125 2.5,1.125 z m 8.16363,1.21875 v -14.71875 h 1.65625 v 14.71875 z m 9.78003,0.26563 q -2.40625,0 -3.92187,-1.5625 -1.51563,-1.57813 -1.51563,-4.04688 0,-2.35937 1.5,-3.96875 1.51563,-1.60937 3.76563,-1.60937 2.29687,0 3.70312,1.59375 1.42188,1.57812 1.42188,4.125 v 0.40625 h -8.64063 q 0.0937,1.64062 1.1875,2.67187 1.09375,1.01563 2.65625,1.01563 1.9375,0 3.28125,-1.34375 l 0.79688,1.07812 q -1.625,1.64063 -4.23438,1.64063 z m 3.3125,-6.26563 q 0,-1.48437 -0.96875,-2.51562 -0.96875,-1.04688 -2.54687,-1.04688 -1.46875,0 -2.45313,1.04688 -0.98437,1.03125 -1.03125,2.51562 z"
       fill-rule="nonzero"
       id="path21" />
    <path
       fill="#63d297"
       d="M 157.2454,204.60251 H 373.02493 V 310.83875 H 157.2454 Z"
       fill-rule="evenodd"
       id="path23" />
    <path
       stroke="#202729"
       stroke-width="1.65879"
       stroke-linejoin="round"
       stroke-linecap="butt"
       d="M 157.2454,204.60251 H 373.02493 V 310.83875 H 157.2454 Z"
       fill-rule="evenodd"
       id="path25" />
    <path
       fill="#000000"
       d="m 225.12025,255.95029 v -20.64063 h 7.04687 q 4.70313,0 7.64063,2.92188 2.95312,2.92187 2.95312,7.40625 0,4.53125 -2.96875,7.42187 -2.95312,2.89063 -7.625,2.89063 z m 7.04687,-2.29688 q 3.53125,0 5.71875,-2.20312 2.20313,-2.21875 2.20313,-5.8125 0,-3.57813 -2.17188,-5.8125 -2.15625,-2.23438 -5.75,-2.23438 h -4.48437 v 16.0625 z m 24.0266,2.67188 q -4.54687,0 -7.40625,-3.03125 -2.84375,-3.04688 -2.84375,-7.65625 0,-4.64063 2.85938,-7.65625 2.875,-3.01563 7.39062,-3.01563 4.54688,0 7.39063,3.03125 2.84375,3.03125 2.84375,7.64063 0,4.64062 -2.85938,7.67187 -2.85937,3.01563 -7.375,3.01563 z m 0,-2.29688 q 3.375,0 5.46875,-2.35937 2.10938,-2.375 2.10938,-6.03125 0,-3.70313 -2.10938,-6.04688 -2.09375,-2.34375 -5.46875,-2.34375 -3.34375,0 -5.46875,2.29688 -2.125,2.29687 -2.125,6.09375 0,3.71875 2.09375,6.0625 2.09375,2.32812 5.5,2.32812 z m 28.88229,1.92188 -12.04687,-16.46875 v 16.46875 h -2.5625 v -20.64063 h 2.625 l 11.89062,16.125 v -16.125 h 2.5625 v 20.64063 z m 7.30546,0 v -20.64063 h 13.51562 v 2.28125 h -10.95312 v 6.65625 h 10.73437 v 2.29688 h -10.73437 v 7.10937 h 10.95312 v 2.29688 z"
       fill-rule="nonzero"
       id="path27" />
    <path
       fill="#000000"
       d="m 264.2023,284.42023 v -13.09375 h -4.65625 v -1.625 h 11.17187 v 1.625 h -4.67187 v 13.09375 z"
       fill-rule="nonzero"
       id="path29" />
    <path
       fill="#f44747"
       d="M 376.26947,402.7156 H 592.04901 V 508.95184 H 376.26947 Z"
       fill-rule="evenodd"
       id="path31" />
    <path
       stroke="#202729"
       stroke-width="1.65879"
       stroke-linejoin="round"
       stroke-linecap="butt"
       d="M 376.26947,402.7156 H 592.04901 V 508.95184 H 376.26947 Z"
       fill-rule="evenodd"
       id="path33" />
    <path
       fill="#000000"
       d="m 437.70605,454.0634 v -20.64063 h 13.51562 v 2.28125 h -10.95312 v 6.65625 h 10.73437 v 2.29688 h -10.73437 v 7.10937 h 10.95312 v 2.29688 z m 29.54987,0 -5.26563,-8.20313 h -4.10937 v 8.20313 h -2.5625 v -20.64063 h 8.28125 q 2.92187,0 4.6875,1.73438 1.78125,1.73437 1.78125,4.48437 0,2.59375 -1.5,4.1875 -1.5,1.59375 -3.84375,1.8125 l 5.5625,8.42188 z m -3.95313,-10.46875 q 1.84375,0 2.96875,-1.09375 1.14063,-1.09375 1.14063,-2.85938 0,-1.76562 -1.14063,-2.84375 -1.125,-1.09375 -2.96875,-1.09375 h -5.42187 v 7.89063 z m 22.77265,10.46875 -5.26563,-8.20313 h -4.10937 v 8.20313 h -2.5625 v -20.64063 h 8.28125 q 2.92187,0 4.6875,1.73438 1.78125,1.73437 1.78125,4.48437 0,2.59375 -1.5,4.1875 -1.5,1.59375 -3.84375,1.8125 l 5.5625,8.42188 z m -3.95313,-10.46875 q 1.84375,0 2.96875,-1.09375 1.14063,-1.09375 1.14063,-2.85938 0,-1.76562 -1.14063,-2.84375 -1.125,-1.09375 -2.96875,-1.09375 h -5.42187 v 7.89063 z m 20.24143,10.84375 q -4.54688,0 -7.40625,-3.03125 -2.84375,-3.04688 -2.84375,-7.65625 0,-4.64063 2.85937,-7.65625 2.875,-3.01563 7.39063,-3.01563 4.54684,0 7.39059,3.03125 2.84375,3.03125 2.84375,7.64063 0,4.64062 -2.85938,7.67187 -2.85937,3.01563 -7.37496,3.01563 z m 0,-2.29688 q 3.37496,0 5.46871,-2.35937 2.10938,-2.375 2.10938,-6.03125 0,-3.70313 -2.10938,-6.04688 -2.09375,-2.34375 -5.46871,-2.34375 -3.34375,0 -5.46875,2.29688 -2.125,2.29687 -2.125,6.09375 0,3.71875 2.09375,6.0625 2.09375,2.32812 5.5,2.32812 z m 26.21041,1.92188 -5.26562,-8.20313 h -4.10938 v 8.20313 h -2.5625 v -20.64063 h 8.28125 q 2.92188,0 4.6875,1.73438 1.78125,1.73437 1.78125,4.48437 0,2.59375 -1.5,4.1875 -1.5,1.59375 -3.84375,1.8125 l 5.5625,8.42188 z m -3.95312,-10.46875 q 1.84375,0 2.96875,-1.09375 1.14062,-1.09375 1.14062,-2.85938 0,-1.76562 -1.14062,-2.84375 -1.125,-1.09375 -2.96875,-1.09375 h -5.42188 v 7.89063 z"
       fill-rule="nonzero"
       id="path35" />
    <path
       fill="#000000"
       d="m 402.66678,482.79898 q -2.71875,0 -4.29687,-1.67188 l 0.85937,-1.20312 q 0.53125,0.625 1.46875,1.07812 0.9375,0.45313 2.03125,0.45313 1.25,0 1.875,-0.51563 0.64063,-0.53125 0.64063,-1.32812 0,-0.70313 -0.70313,-1.10938 -0.6875,-0.40625 -2.57812,-0.84375 -1.60938,-0.32812 -2.46875,-1.04687 -0.84375,-0.71875 -0.84375,-1.9375 0,-1.34375 1.07812,-2.20313 1.07813,-0.85937 2.89063,-0.85937 2.40625,0 3.95312,1.53125 l -0.76562,1.15625 q -0.48438,-0.57813 -1.3125,-0.95313 -0.82813,-0.39062 -1.875,-0.39062 -1.09375,0 -1.73438,0.48437 -0.625,0.48438 -0.625,1.1875 0,0.64063 0.70313,1.01563 0.71875,0.375 2.60937,0.78125 1.60938,0.375 2.45313,1.14062 0.84375,0.75 0.84375,2.01563 0,1.46875 -1.15625,2.34375 -1.14063,0.875 -3.04688,0.875 z m 9.5788,0 q -2.35938,0 -2.35938,-2.5 v -6.96875 h -1.76562 v -1.45313 h 1.76562 v -2.92187 h 1.65625 v 2.92187 h 2.17188 v 1.45313 h -2.17188 v 6.625 q 0,0.59375 0.26563,0.98437 0.26562,0.375 0.8125,0.375 0.6875,0 1.125,-0.4375 l 0.5,1.23438 q -0.6875,0.6875 -2,0.6875 z m 11.53781,-0.26563 v -1.59375 q -0.60938,0.82813 -1.54688,1.34375 -0.9375,0.51563 -2.0625,0.51563 -2.14062,0 -3.45312,-1.51563 -1.29688,-1.53125 -1.29688,-4.07812 0,-2.54688 1.3125,-4.0625 1.32813,-1.53125 3.4375,-1.53125 1.07813,0 2.01563,0.5 0.95312,0.48437 1.59375,1.375 v -5.67188 h 1.64062 v 14.71875 z m -3.20313,-1.21875 q 0.98438,0 1.85938,-0.48437 0.89062,-0.48438 1.34375,-1.1875 v -4.84375 q -0.45313,-0.70313 -1.34375,-1.20313 -0.875,-0.51562 -1.85938,-0.51562 -1.54687,0 -2.48437,1.125 -0.9375,1.125 -0.9375,3 0,1.84375 0.92187,2.98437 0.92188,1.125 2.5,1.125 z m 9.03861,-7.17187 q -0.5,0 -0.85938,-0.34375 -0.34375,-0.35938 -0.34375,-0.875 0,-0.5 0.34375,-0.84375 0.35938,-0.35938 0.85938,-0.35938 0.51562,0 0.85937,0.35938 0.35938,0.34375 0.35938,0.84375 0,0.51562 -0.35938,0.875 -0.34375,0.34375 -0.85937,0.34375 z m 0,8.60937 q -0.5,0 -0.85938,-0.34375 -0.34375,-0.35937 -0.34375,-0.875 0,-0.5 0.34375,-0.84375 0.35938,-0.35937 0.85938,-0.35937 0.51562,0 0.85937,0.35937 0.35938,0.34375 0.35938,0.84375 0,0.51563 -0.35938,0.875 -0.34375,0.34375 -0.85937,0.34375 z m 5.07794,-8.60937 q -0.5,0 -0.85938,-0.34375 -0.34375,-0.35938 -0.34375,-0.875 0,-0.5 0.34375,-0.84375 0.35938,-0.35938 0.85938,-0.35938 0.51562,0 0.85937,0.35938 0.35938,0.34375 0.35938,0.84375 0,0.51562 -0.35938,0.875 -0.34375,0.34375 -0.85937,0.34375 z m 0,8.60937 q -0.5,0 -0.85938,-0.34375 -0.34375,-0.35937 -0.34375,-0.875 0,-0.5 0.34375,-0.84375 0.35938,-0.35937 0.85938,-0.35937 0.51562,0 0.85937,0.35937 0.35938,0.34375 0.35938,0.84375 0,0.51563 -0.35938,0.875 -0.34375,0.34375 -0.85937,0.34375 z m 9.01544,0.0469 q -2.40625,0 -3.92187,-1.5625 -1.51563,-1.57813 -1.51563,-4.04688 0,-2.35937 1.5,-3.96875 1.51563,-1.60937 3.76563,-1.60937 2.29687,0 3.70312,1.59375 1.42188,1.57812 1.42188,4.125 v 0.40625 h -8.64063 q 0.0937,1.64062 1.1875,2.67187 1.09375,1.01563 2.65625,1.01563 1.9375,0 3.28125,-1.34375 l 0.79688,1.07812 q -1.625,1.64063 -4.23438,1.64063 z m 3.3125,-6.26563 q 0,-1.48437 -0.96875,-2.51562 -0.96875,-1.04688 -2.54687,-1.04688 -1.46875,0 -2.45313,1.04688 -0.98437,1.03125 -1.03125,2.51562 z m 11.21118,6 -3.20312,-4.375 -3.20313,4.375 h -1.89062 l 4.07812,-5.46875 -3.85937,-5.1875 h 1.92187 l 2.95313,4.0625 2.96875,-4.0625 h 1.92187 l -3.875,5.1875 4.10938,5.46875 z m 7.70975,0.26563 q -2.34375,0 -3.84375,-1.59375 -1.48437,-1.59375 -1.48437,-4.01563 0,-2.40625 1.48437,-3.98437 1.5,-1.59375 3.84375,-1.59375 2.46875,0 3.90625,1.84375 l -1.10937,1.01562 q -1.01563,-1.39062 -2.70313,-1.39062 -1.64062,0 -2.67187,1.14062 -1.01563,1.14063 -1.01563,2.96875 0,1.85938 1.01563,3 1.01562,1.125 2.67187,1.125 1.67188,0 2.70313,-1.39062 l 1.10937,1.01562 q -1.4375,1.85938 -3.90625,1.85938 z m 11.03799,0 q -2.40625,0 -3.92187,-1.5625 -1.51563,-1.57813 -1.51563,-4.04688 0,-2.35937 1.5,-3.96875 1.51563,-1.60937 3.76563,-1.60937 2.29687,0 3.70312,1.59375 1.42188,1.57812 1.42188,4.125 v 0.40625 h -8.64063 q 0.0937,1.64062 1.1875,2.67187 1.09375,1.01563 2.65625,1.01563 1.9375,0 3.28125,-1.34375 l 0.79688,1.07812 q -1.625,1.64063 -4.23438,1.64063 z m 3.3125,-6.26563 q 0,-1.48437 -0.96875,-2.51562 -0.96875,-1.04688 -2.54687,-1.04688 -1.46875,0 -2.45313,1.04688 -0.98437,1.03125 -1.03125,2.51562 z m 9.55494,6.26563 q -2.26563,0 -3.59375,-1.875 v 5.67187 h -1.65625 V 471.8771 h 1.65625 v 1.57813 q 0.57812,-0.8125 1.51562,-1.32813 0.95313,-0.51562 2.07813,-0.51562 2.14062,0 3.4375,1.5 1.3125,1.5 1.3125,4.07812 0,2.5625 -1.29688,4.09375 -1.28125,1.51563 -3.45312,1.51563 z m -0.42188,-1.48438 q 1.54688,0 2.48438,-1.125 0.9375,-1.125 0.9375,-3 0,-1.82812 -0.92188,-2.96875 -0.92187,-1.14062 -2.5,-1.14062 -0.98437,0 -1.85937,0.5 -0.875,0.5 -1.3125,1.20312 v 4.8125 q 0.4375,0.70313 1.3125,1.21875 0.875,0.5 1.85937,0.5 z m 10.48801,1.48438 q -2.35938,0 -2.35938,-2.5 v -6.96875 h -1.76562 v -1.45313 h 1.76562 v -2.92187 h 1.65625 v 2.92187 h 2.17188 v 1.45313 h -2.17188 v 6.625 q 0,0.59375 0.26563,0.98437 0.26562,0.375 0.8125,0.375 0.6875,0 1.125,-0.4375 l 0.5,1.23438 q -0.6875,0.6875 -2,0.6875 z m 4.61593,-12.45313 q -0.4375,0 -0.76562,-0.3125 -0.32813,-0.32812 -0.32813,-0.79687 0,-0.45313 0.32813,-0.78125 0.32812,-0.34375 0.76562,-0.34375 0.46875,0 0.79688,0.34375 0.32812,0.32812 0.32812,0.78125 0,0.46875 -0.32812,0.79687 -0.32813,0.3125 -0.79688,0.3125 z m -0.8125,12.1875 V 471.8771 h 1.65625 v 10.65625 z m 9.62381,0.26563 q -2.3125,0 -3.79687,-1.57813 -1.48438,-1.57812 -1.48438,-4.03125 0,-2.46875 1.48438,-4.01562 1.48437,-1.5625 3.79687,-1.5625 2.3125,0 3.79688,1.5625 1.48437,1.54687 1.48437,4.01562 0,2.45313 -1.48437,4.03125 -1.48438,1.57813 -3.79688,1.57813 z m 0,-1.48438 q 1.54688,0 2.53125,-1.15625 1,-1.15625 1,-2.96875 0,-1.78125 -1,-2.9375 -0.98437,-1.17187 -2.53125,-1.17187 -1.54687,0 -2.54687,1.15625 -1,1.14062 -1,2.95312 0,1.82813 0.98437,2.98438 1,1.14062 2.5625,1.14062 z m 15.17554,1.21875 V 475.549 q 0,-1.40625 -0.65625,-1.9375 -0.65625,-0.53125 -1.73437,-0.53125 -0.92188,0 -1.82813,0.5 -0.89062,0.5 -1.32812,1.15625 v 7.79687 H 521.3169 V 471.8771 h 1.65625 v 1.53125 q 0.6875,-0.78125 1.6875,-1.28125 1,-0.51562 2.10937,-0.51562 3.40625,0 3.40625,3.4375 v 7.48437 z m 3.2431,2.09375 V 483.424 h 12.57813 v 1.20312 z M 551.1839,482.799 q -2.26562,0 -3.59375,-1.875 v 5.67187 H 545.9339 V 471.8771 h 1.65625 v 1.57813 q 0.57813,-0.8125 1.51563,-1.32813 0.95312,-0.51562 2.07812,-0.51562 2.14063,0 3.4375,1.5 1.3125,1.5 1.3125,4.07812 0,2.5625 -1.29687,4.09375 -1.28125,1.51563 -3.45313,1.51563 z m -0.42187,-1.48438 q 1.54687,0 2.48437,-1.125 0.9375,-1.125 0.9375,-3 0,-1.82812 -0.92187,-2.96875 -0.92188,-1.14062 -2.5,-1.14062 -0.98438,0 -1.85938,0.5 -0.875,0.5 -1.3125,1.20312 v 4.8125 q 0.4375,0.70313 1.3125,1.21875 0.875,0.5 1.85938,0.5 z M 561.25,482.799 q -2.35937,0 -2.35937,-2.5 v -6.96875 H 557.125 v -1.45313 h 1.76563 v -2.92187 h 1.65625 v 2.92187 h 2.17187 v 1.45313 h -2.17187 v 6.625 q 0,0.59375 0.26562,0.98437 0.26563,0.375 0.8125,0.375 0.6875,0 1.125,-0.4375 l 0.5,1.23438 q -0.6875,0.6875 -2,0.6875 z m 3.80347,-0.26563 V 471.8771 h 1.65625 v 1.71875 q 1.48437,-1.95312 3.54687,-1.95312 v 1.70312 l -0.65625,-0.0625 q -0.75,0 -1.65625,0.54688 -0.90625,0.53125 -1.23437,1.15625 v 7.54687 z"
       fill-rule="nonzero"
       id="path37" />
    <path
       fill="#d9d9d9"
       d="m 403.48096,83.72441 v 0 c 0,-22.691513 18.39511,-41.086617 41.08661,-41.086617 v 0 c 10.89685,0 21.34738,4.328758 29.05261,12.033993 7.70523,7.705235 12.034,18.155773 12.034,29.052624 v 0 c 0,22.69151 -18.39511,41.08661 -41.08661,41.08661 v 0 c -22.6915,0 -41.08661,-18.3951 -41.08661,-41.08661 z"
       fill-rule="evenodd"
       id="path39" />
    <path
       stroke="#202729"
       stroke-width="1.65879"
       stroke-linejoin="round"
       stroke-linecap="butt"
       d="m 403.48096,83.72441 v 0 c 0,-22.691513 18.39511,-41.086617 41.08661,-41.086617 v 0 c 10.89685,0 21.34738,4.328758 29.05261,12.033993 7.70523,7.705235 12.034,18.155773 12.034,29.052624 v 0 c 0,22.69151 -18.39511,41.08661 -41.08661,41.08661 v 0 c -22.6915,0 -41.08661,-18.3951 -41.08661,-41.08661 z"
       fill-rule="evenodd"
       id="path41" />
    <path
       fill="#000000"
       d="m 422.6085,90.62992 q -3.04688,0 -4.84375,-2.015625 l 0.92187,-1.1875 q 0.78125,0.875 1.8125,1.34375 1.04688,0.453125 2.17188,0.453125 1.35937,0 2.15625,-0.609375 0.8125,-0.609375 0.8125,-1.5625 0,-1.5 -2.34375,-2.140625 -2.78125,-0.734375 -3.54688,-1.171875 -0.76562,-0.4375 -1.1875,-1.09375 -0.40625,-0.65625 -0.40625,-1.5625 0,-1.515625 1.21875,-2.5 1.23438,-1 3.125,-1 2.82813,0 4.48438,1.765625 l -0.95313,1.15625 q -1.35937,-1.515625 -3.64062,-1.515625 -1.14063,0 -1.875,0.546875 -0.71875,0.546875 -0.71875,1.453125 0,0.671875 0.59375,1.140625 0.60937,0.453125 1.76562,0.734375 2.6875,0.734375 3.46875,1.21875 0.78125,0.46875 1.20313,1.15625 0.4375,0.6875 0.4375,1.671875 0,1.75 -1.26563,2.734375 -1.26562,0.984375 -3.39062,0.984375 z m 10.00589,-0.234375 v -11.21875 h -3.98437 v -1.40625 h 9.57812 v 1.40625 h -4.01562 v 11.21875 z m 15.4079,0 -1.125,-2.796875 h -6.28125 l -1.10938,2.796875 h -1.79687 l 5.0625,-12.625 h 1.95312 l 5.09375,12.625 z m -4.26563,-11 -2.6875,6.796875 h 5.35938 z m 15.01306,11 -3.21875,-5.015625 h -2.51562 v 5.015625 h -1.57813 v -12.625 h 5.07813 q 1.78125,0 2.85937,1.0625 1.09375,1.0625 1.09375,2.75 0,1.578125 -0.92187,2.5625 -0.90625,0.96875 -2.34375,1.109375 l 3.40625,5.140625 z m -2.42187,-6.390625 q 1.14062,0 1.82812,-0.671875 0.6875,-0.671875 0.6875,-1.75 0,-1.078125 -0.6875,-1.734375 -0.6875,-0.671875 -1.82812,-0.671875 h -3.3125 v 4.828125 z m 9.54959,6.390625 v -11.21875 h -3.98437 v -1.40625 h 9.57812 v 1.40625 h -4.01562 v 11.21875 z"
       fill-rule="nonzero"
       id="path43" />
    <path
       fill="#000000"
       fill-opacity="0"
       d="m 415.51495,112.77703 -150.3937,91.81103"
       fill-rule="evenodd"
       id="path45" />
    <path
       stroke="#4ba173"
       stroke-width="4.97638"
       stroke-linejoin="round"
       stroke-linecap="butt"
       d="m 415.51492,112.77704 -124.9089,76.2533"
       fill-rule="evenodd"
       id="path47" />
    <path
       fill="#4ba173"
       stroke="#4ba173"
       stroke-width="4.97638"
       stroke-linecap="butt"
       d="m 286.32315,182.01466 -14.99252,18.78274 23.55826,-4.7514 z"
       fill-rule="evenodd"
       id="path49" />
    <path
       fill="#000000"
       fill-opacity="0"
       d="M 473.62018,112.77703 601.5257,204.58806"
       fill-rule="evenodd"
       id="path51" />
    <path
       stroke="#f1c232"
       stroke-width="4.97638"
       stroke-linejoin="round"
       stroke-linecap="butt"
       d="m 473.6202,112.77704 103.64926,74.3998"
       fill-rule="evenodd"
       id="path53" />
    <path
       fill="#f1c232"
       stroke="#f1c232"
       stroke-width="4.97638"
       stroke-linecap="butt"
       d="m 572.4764,193.85431 23.13928,6.49149 -13.5531,-19.84644 z"
       fill-rule="evenodd"
       id="path55" />
    <path
       fill="#000000"
       fill-opacity="0"
       d="M 601.512,310.8393 484.15769,402.71332"
       fill-rule="evenodd"
       id="path57" />
    <path
       stroke="#f44747"
       stroke-width="4.97638"
       stroke-linejoin="round"
       stroke-linecap="butt"
       d="m 601.512,310.8393 -93.84387,73.4682"
       fill-rule="evenodd"
       id="path59" />
    <path
       fill="#f44747"
       stroke="#f44747"
       stroke-width="4.97638"
       stroke-linecap="butt"
       d="m 502.60126,377.83533 -12.71524,20.39337 22.84903,-7.44903 z"
       fill-rule="evenodd"
       id="path61" />
    <path
       fill="#000000"
       fill-opacity="0"
       d="m 601.512,310.8393 117.35431,91.87402"
       fill-rule="evenodd"
       id="path63" />
    <path
       stroke="#0000ff"
       stroke-width="4.97638"
       stroke-linejoin="round"
       stroke-linecap="butt"
       d="m 601.512,310.8393 93.84387,73.4682"
       fill-rule="evenodd"
       id="path65" />
    <path
       fill="#0000ff"
       stroke="#0000ff"
       stroke-width="4.97638"
       stroke-linecap="butt"
       d="m 690.289,390.77966 22.84906,7.44907 -12.71521,-20.39341 z"
       fill-rule="evenodd"
       id="path67" />
    <path
       fill="#000000"
       fill-opacity="0"
       d="M 493.62225,257.7212 H 373.02383"
       fill-rule="evenodd"
       id="path69" />
    <path
       stroke="#4ba173"
       stroke-width="4.97638"
       stroke-linejoin="round"
       stroke-linecap="butt"
       d="M 493.62225,257.72116 H 402.88208"
       fill-rule="evenodd"
       id="path71" />
    <path
       fill="#4ba173"
       stroke="#4ba173"
       stroke-width="4.97638"
       stroke-linecap="butt"
       d="m 402.88208,249.50153 -22.58328,8.21963 22.58328,8.21967 z"
       fill-rule="evenodd"
       id="path73" />
    <path
       fill="#000000"
       fill-opacity="0"
       d="m 601.512,204.60307 c 0,-29.85141 35.67133,-59.26488 68.73096,-59.70281 33.05969,-0.43792 63.50769,28.09969 68.73096,56.41834 5.22327,28.31865 -14.7782,56.41834 -29.5564,56.41834"
       fill-rule="evenodd"
       id="path75" />
    <path
       stroke="#f1c232"
       stroke-width="4.97638"
       stroke-linejoin="round"
       stroke-linecap="butt"
       d="m 611.5887,176.49654 0.0926,-0.12881 c 0.30133,-0.41395 0.60834,-0.82549 0.92084,-1.2345 0.625,-0.81809 1.27203,-1.62613 1.93988,-2.42331 2.6712,-3.18874 5.67554,-6.20342 8.93805,-8.9883 13.05035,-11.13954 30.23309,-18.60238 46.76288,-18.82135 33.05969,-0.43792 63.50769,28.09969 68.73096,56.41832 5.22326,28.31865 -14.77814,56.41832 -29.5564,56.41832"
       fill-rule="evenodd"
       id="path77" />
    <path
       fill="#f1c232"
       stroke="#f1c232"
       stroke-width="4.97638"
       stroke-linecap="butt"
       d="m 603.85126,173.72253 0.11597,24.03236 15.35888,-18.48437 z"
       fill-rule="evenodd"
       id="path79" />
    <path
       fill="#000000"
       fill-opacity="0"
       d="m 297.8888,132.70267 70.07873,-42.80314 21.63779,35.40157 -70.07873,42.80315 z"
       fill-rule="evenodd"
       id="path81" />
    <path
       fill="#616161"
       d="m 330.53644,149.45058 q -2.97357,1.81622 -5.84488,1.04335 l 0.14816,-1.8848 q 0.98081,0.3164 2.31723,0.19588 1.34159,-0.142 2.55503,-0.88315 1.34677,-0.82258 1.71124,-1.81419 0.35635,-1.00493 -0.18146,-1.88484 -0.47262,-0.77324 -1.51492,-0.74082 -1.03711,0.0109 -3.41879,0.78821 -1.9935,0.72325 -3.40769,0.50679 -1.40085,-0.22462 -2.2157,-1.55781 -0.90451,-1.47985 -0.28814,-3.13794 0.60821,-1.67144 2.59506,-2.88497 2.64023,-1.61261 5.36856,-0.95379 l -0.0874,1.77444 q -0.91635,-0.30083 -2.08386,-0.17361 -1.16749,0.12719 -2.30094,0.81948 -1.21341,0.74115 -1.58087,1.69794 -0.36743,0.95679 0.11331,1.74338 0.42374,0.69327 1.44974,0.63417 1.03934,-0.0672 3.38843,-0.89783 2.01275,-0.66179 3.44619,-0.38383 1.43863,0.25645 2.28608,1.64297 0.98599,1.61318 0.3059,3.3468 -0.66671,1.72548 -2.76025,3.00417 z m 8.81278,-1.75754 q 0.50079,-0.0495 1.11416,-0.42419 0.60007,-0.3665 0.85861,-0.87229 0.25855,-0.50578 0.12522,-1.41304 l -0.3104,-2.24553 -12.12155,-8.83639 1.97351,-1.20538 9.76065,7.22081 -1.98666,-11.96906 1.98682,-1.21353 2.73779,17.66211 q 0.44443,2.91431 -1.98984,4.47436 -0.70673,0.43166 -1.43939,0.64115 z m 18.34674,-15.23391 -4.67731,-7.65255 q -0.94522,-1.5465 -2.02384,-1.6933 -1.07858,-0.14681 -2.26535,0.57805 -1.01342,0.61899 -1.66607,1.76829 -0.63935,1.14116 -0.67121,2.16762 l 5.22327,8.54577 -1.82681,1.1158 -7.15448,-11.70544 1.82681,-1.1158 1.04303,1.70649 q 0.20892,-1.33601 0.96823,-2.55046 0.76453,-1.23594 1.97797,-1.97709 3.73364,-2.28046 6.0397,1.49248 l 5.01956,8.21248 z m 10.78241,-6.18296 q -2.56022,1.56375 -5.26783,0.81904 -2.70761,-0.74471 -4.33734,-3.4111 -1.6134,-2.63973 -1.03259,-5.37465 0.57266,-2.74826 3.13287,-4.312 2.72025,-1.66148 5.53229,-0.59608 l -0.52896,1.86103 q -2.05716,-0.84903 -3.91065,0.28306 -1.80017,1.0995 -2.16763,3.04499 -0.36227,1.92401 0.86817,3.93713 1.24676,2.03979 3.11947,2.617 1.87793,0.55573 3.70474,-0.56007 1.84015,-1.12394 2.04465,-3.33607 l 1.88977,0.36541 q -0.32672,3.00084 -3.04696,4.66231 z"
       fill-rule="nonzero"
       id="path83" />
    <path
       fill="#000000"
       fill-opacity="0"
       d="m 520.3658,90.355225 66.83466,47.779525 -24.15747,33.79527 -66.83466,-47.77952 z"
       fill-rule="evenodd"
       id="path85" />
    <path
       fill="#616161"
       d="m 515.27435,124.81258 0.90863,-1.27113 q -2.51941,0.54213 -4.8074,-1.09352 -1.67786,-1.19947 -2.04224,-3.05417 -0.34262,-1.85832 0.78409,-3.43454 1.15396,-1.61434 2.98309,-1.86248 1.84186,-0.23906 3.54511,0.97859 2.4024,1.71743 2.60852,4.16967 l 1.43567,-2.0084 q 0.80865,-1.13132 0.44403,-2.31394 -0.35193,-1.17353 -1.5849,-2.05497 -1.95746,-1.39939 -4.51868,-0.90631 l 0.0534,-1.76735 q 3.09704,-0.57098 5.77905,1.34637 2.04645,1.463 2.46899,3.26322 0.42255,1.80023 -0.84955,3.57982 l -5.47906,7.66496 z m -2.3855,-3.1651 q 2.05921,1.47208 4.06647,0.8135 l 1.50836,-2.11009 q -0.0265,-2.1125 -2.08563,-3.58458 -1.22028,-0.87235 -2.47357,-0.73115 -1.25336,0.1412 -2.02567,1.22166 -0.75418,1.05505 -0.48218,2.28668 0.27198,1.23163 1.49222,2.10398 z m 10.91242,9.68349 q -2.83454,-2.0264 -3.24573,-4.97096 l 1.79291,-0.60054 q 0.0923,1.02631 0.72571,2.20904 0.65527,1.17909 1.81195,2.00601 1.28381,0.91779 2.33911,0.86551 1.06439,-0.065 1.66412,-0.90393 0.52698,-0.73726 0.0896,-1.68378 -0.41559,-0.95014 -2.06232,-2.83802 -1.44519,-1.55178 -1.79889,-2.93783 -0.34094,-1.37698 0.56769,-2.64811 1.00861,-1.41097 2.77588,-1.49203 1.77643,-0.0938 3.67035,1.26019 2.51678,1.79921 2.97711,4.5676 l -1.6676,0.6133 q -0.0814,-0.9609 -0.65497,-1.98558 -0.57361,-1.02468 -1.65405,-1.79707 -1.15668,-0.82691 -2.18109,-0.79098 -1.02442,0.0359 -1.56055,0.78591 -0.47247,0.66099 -0.0169,1.58209 0.46827,0.93018 2.15131,2.76722 1.39618,1.59353 1.70081,3.02135 0.32641,1.42419 -0.6186,2.74617 -1.09942,1.53808 -2.96118,1.59004 -1.84906,0.061 -3.84466,-1.3656 z m 5.0636,7.42294 q 0.24145,0.44148 0.82611,0.85948 0.57202,0.40891 1.13867,0.44908 0.56671,0.0402 1.34973,-0.43722 l 1.94568,-1.16358 3.39465,-14.60991 1.88123,1.34488 -2.83057,11.80558 10.24109,-6.50789 1.89392,1.35394 -15.18799,9.42497 q -2.50891,1.54843 -4.89679,-0.0818 -0.6737,-0.48161 -1.15295,-1.07394 z m 21.19677,10.92779 5.21552,-7.29634 q 1.05401,-1.47451 0.76745,-2.52452 -0.28662,-1.04998 -1.4179,-1.85873 -0.96601,-0.6906 -2.27918,-0.84187 -1.30041,-0.14219 -2.25775,0.22981 l -5.82434,8.14799 -1.7414,-1.2449 7.97779,-11.1606 1.74139,1.24492 -1.16302,1.62706 q 1.31146,-0.33009 2.72632,-0.10613 1.43664,0.22034 2.59332,1.04726 3.55908,2.54434 0.98767,6.14166 l -5.59723,7.83022 z m 9.90741,7.5053 q -2.44049,-1.74471 -2.81366,-4.52759 -0.37311,-2.78288 1.44416,-5.32516 1.79907,-2.51685 4.54376,-3.05164 2.75372,-0.5475 5.19427,1.19721 2.59302,1.85373 2.71179,4.85812 l -1.91998,0.24084 q -0.0228,-2.22511 -1.78961,-3.4882 -1.71594,-1.22673 -3.65051,-0.80426 -1.91272,0.41887 -3.28479,2.33829 -1.3902,1.94484 -1.18933,3.89392 0.22271,1.94546 1.96411,3.19037 1.75409,1.25399 3.87036,0.5773 l 0.40253,1.88196 q -2.89008,0.87257 -5.4831,-0.98116 z"
       fill-rule="nonzero"
       id="path87" />
    <path
       fill="#000000"
       fill-opacity="0"
       d="m 655.455,304.7752 58.64563,47.71655 -26.20471,32.18897 -58.64569,-47.71652 z"
       fill-rule="evenodd"
       id="path89" />
    <path
       fill="#616161"
       d="m 642.29895,333.41776 q -2.15735,-1.75531 -2.34546,-4.3457 -0.1759,-2.58054 1.64905,-4.82224 1.80517,-2.2175 4.36841,-2.56936 2.57525,-0.34198 4.73266,1.41333 2.27851,1.85394 2.19886,4.64947 l -1.77765,0.10468 q 0.11236,-2.04377 -1.45111,-3.31586 -1.51502,-1.23267 -3.31855,-0.94766 -1.79376,0.27292 -3.16491,1.95724 -1.40076,1.72064 -1.32575,3.53418 0.097,1.81128 1.62409,3.0538 1.53924,1.25238 3.54242,0.74701 l 0.25848,1.76139 q -2.71198,0.63366 -4.99054,-1.22028 z m 12.08209,9.42764 0.90759,-1.11477 q -2.34112,0.35128 -4.35302,-1.28571 -1.49079,-1.21295 -1.71289,-2.94476 -0.21003,-1.72193 0.92437,-3.11542 1.15418,-1.41772 2.85151,-1.54749 1.70947,-0.1199 3.22442,1.11277 2.10889,1.71588 2.1532,3.98785 l 1.44025,-1.7691 q 0.8089,-0.99362 0.53997,-2.09876 -0.25903,-1.11725 -1.3377,-1.9949 -1.72107,-1.4003 -4.1106,-1.08847 l 0.14313,-1.63602 q 2.8952,-0.36374 5.25861,1.55924 1.81799,1.47918 2.09173,3.17239 0.28357,1.68106 -0.98895,3.2442 l -5.50446,6.76148 z m -2.00232,-3.05938 q 1.80585,1.46933 3.68921,0.98733 l 1.50928,-1.85397 q 0.0994,-1.95359 -1.70642,-3.42292 -1.07868,-0.87765 -2.25067,-0.82403 -1.14997,0.0514 -1.92926,1.00864 -0.75959,0.93304 -0.58619,2.08129 0.19532,1.14597 1.27405,2.02366 z m 13.2298,12.19451 5.2381,-6.43432 q 1.05554,-1.29654 0.84411,-2.27432 -0.18945,-0.98001 -1.19543,-1.7985 -0.84839,-0.6903 -2.04736,-0.90042 -1.19904,-0.21011 -2.10437,0.0605 l -5.84967,7.18558 -1.52717,-1.24253 8.00025,-9.82718 1.5271,1.24256 -1.15418,1.41772 q 1.22211,-0.21426 2.52796,0.0626 1.31799,0.28675 2.33606,1.11512 3.1391,2.55407 0.55456,5.72882 l -5.62286,6.90689 z m 8.71912,7.49711 q -2.15735,-1.75534 -2.34546,-4.34574 -0.17591,-2.5805 1.64904,-4.82223 1.80518,-2.21747 4.36841,-2.56934 2.57526,-0.34201 4.73267,1.4133 2.2785,1.85394 2.19885,4.64951 l -1.77765,0.10467 q 0.11237,-2.04376 -1.45111,-3.31589 -1.51501,-1.23266 -3.31854,-0.94763 -1.79376,0.27292 -3.16492,1.95722 -1.40075,1.72067 -1.32574,3.53421 0.097,1.81125 1.62408,3.0538 1.53925,1.25238 3.54242,0.74698 l 0.25849,1.76138 q -2.71198,0.63367 -4.99054,-1.22024 z m 10.1759,8.27954 q -2.21796,-1.80463 -2.43787,-4.38065 -0.21991,-2.57602 1.64447,-4.86621 1.76581,-2.16901 4.36084,-2.53525 2.59503,-0.36624 4.67963,1.32993 2.12103,1.72574 2.22424,4.2471 0.11536,2.53122 -1.7984,4.88199 l -0.30578,0.37564 -7.96283,-6.47891 q -1.1604,1.57382 -0.92389,3.33749 0.24865,1.7735 1.69098,2.94699 1.79376,1.45947 4.03619,1.22937 l -0.0696,1.59515 q -2.73822,0.2699 -5.138,-1.68264 z m 7.75964,-3.29493 q 1.11475,-1.36926 0.98731,-3.04415 -0.11762,-1.68702 -1.55988,-2.86051 -1.35742,-1.10446 -3.04577,-0.88681 -1.67841,0.20557 -2.82947,1.54523 z m -0.53473,8.77054 11.05823,-13.58355 1.5271,1.24252 -11.05823,13.58356 z"
       fill-rule="nonzero"
       id="path91" />
    <path
       fill="#000000"
       fill-opacity="0"
       d="m 480.19138,359.84415 72.00003,-58.77167 26.2677,32.15747 -72,58.77167 z"
       fill-rule="evenodd"
       id="path93" />
    <path
       fill="#616161"
       d="m 513.04803,373.46158 q -2.34824,1.91681 -4.38449,-0.57599 l -5.67377,-6.94598 -1.76724,1.44253 -1.18616,-1.45212 1.76724,-1.44253 -2.36245,-2.89215 1.64621,-1.34375 2.36242,2.89215 2.15461,-1.75873 1.18615,1.45212 -2.1546,1.75873 5.38715,6.59503 q 0.48434,0.59296 1.05484,0.7727 0.58261,0.16986 1.1394,-0.28463 0.67786,-0.55332 0.7699,-1.35453 l 1.4704,0.83686 q -0.11444,1.24307 -1.40961,2.30029 z m 10.75153,-9.21991 -5.71332,-6.99439 q -0.96869,-1.18591 -2.0296,-1.34854 -1.06092,-0.16265 -2.344,0.88468 -0.89575,0.73117 -1.35754,1.89474 -0.47168,1.15146 -0.42331,2.32215 l 6.33609,7.75674 -1.65833,1.35361 -11.98019,-14.66641 1.65829,-1.35361 4.56672,5.59067 q 0.0299,-1.39594 0.63919,-2.70008 0.61148,-1.32611 1.68875,-2.20547 3.38928,-2.76654 6.14709,0.60965 l 6.12848,7.50262 z m 4.9505,-4.04098 -8.67871,-10.62467 1.65832,-1.35364 1.40363,1.71836 q -0.11695,-3.13172 1.95294,-4.82126 l 1.38385,1.69412 -0.70307,0.47305 q -0.75048,0.61258 -1.2135,1.89817 -0.46081,1.26361 -0.28351,2.14752 l 6.13837,7.51474 z m 12.12347,-9.45234 q -2.31189,1.88718 -5.07367,1.51947 -2.76172,-0.3677 -4.75842,-2.8121 -2.00659,-2.45651 -1.79511,-5.21085 0.21149,-2.75436 2.52344,-4.64154 2.29987,-1.87729 5.04181,-1.53378 2.742,0.34351 4.7486,2.80002 1.9967,2.4444 1.80493,5.22293 -0.19171,2.77856 -2.49158,4.65585 z m -1.20593,-1.47632 q 1.53729,-1.25482 1.57867,-3.20474 0.0436,-1.97189 -1.42914,-3.77493 -1.45306,-1.77884 -3.38464,-2.11826 -1.92938,-0.36135 -3.46667,0.89347 -1.54938,1.26468 -1.61499,3.23437 -0.0634,1.94769 1.40942,3.75073 1.49261,1.82727 3.42419,2.16666 1.9217,0.3273 3.48316,-0.9473 z m 18.12018,-12.77401 -9.74061,-6.26856 4.19678,10.79383 -1.64624,1.34375 -12.06793,-7.85813 1.71881,-1.40304 9.50958,6.35626 -4.1231,-10.75308 1.40411,-1.14615 9.71539,6.18832 -4.32892,-10.58514 1.71881,-1.40302 5.28949,13.39121 z"
       fill-rule="nonzero"
       id="path95" />
    <path
       fill="#000000"
       fill-opacity="0"
       d="m 708.6075,102.69476 73.51184,59.08661 -26.01575,32.37795 -73.51184,-59.08661 z"
       fill-rule="evenodd"
       id="path97" />
    <path
       fill="#616161"
       d="m 695.8325,130.59846 q -2.31396,-1.85988 -2.51093,-4.38371 l 1.54303,-0.42362 q 0.0298,0.88593 0.50818,1.91197 0.50043,1.02366 1.45038,1.78718 1.04736,0.84184 1.94769,0.84385 0.9004,0.002 1.44843,-0.68008 0.47955,-0.59683 0.15686,-1.41754 -0.31293,-0.83287 -1.61713,-2.50259 -1.15112,-1.38628 -1.39245,-2.58263 -0.21942,-1.19873 0.61242,-2.23405 0.91999,-1.14494 2.4206,-1.14159 1.51282,0.0131 3.05951,1.25631 2.04596,1.64453 2.30432,4.01719 l -1.44061,0.44582 q -0.0226,-0.82003 -0.46473,-1.71665 -0.42993,-0.88683 -1.31897,-1.60141 -0.93774,-0.75374 -1.80639,-0.77032 -0.86859,-0.0166 -1.34815,0.58024 -0.44043,0.54812 -0.10791,1.35664 0.3545,0.80613 1.69782,2.42712 1.11194,1.435 1.29962,2.6483 0.19983,1.2231 -0.66144,2.29496 -1.01782,1.26675 -2.58911,1.22664 -1.57129,-0.0401 -3.19104,-1.34203 z m 12.18146,9.41022 1.02759,-1.27893 q -1.00324,0.17591 -2.2276,-0.0465 -1.20246,-0.22474 -2.21326,-1.03723 -2.89856,-2.32974 -0.56928,-5.22864 l 5.15766,-6.41898 1.41272,1.13551 -4.8053,5.9805 q -0.86127,1.07185 -0.77539,1.96279 0.0859,0.89095 1.13324,1.73279 0.82818,0.66564 1.89166,0.83884 1.07562,0.183 1.90576,-0.0519 l 5.36316,-6.67477 1.41272,1.13551 -7.30096,9.08645 z m 6.92328,5.94561 q -2.31391,-1.85987 -2.51093,-4.38369 l 1.54303,-0.42363 q 0.0298,0.88592 0.50824,1.91197 0.50037,1.02365 1.45032,1.78719 1.04736,0.84184 1.94775,0.84384 0.90033,0.002 1.44843,-0.68009 0.47955,-0.59683 0.1568,-1.41752 -0.31293,-0.83289 -1.61713,-2.5026 -1.15106,-1.38629 -1.39246,-2.58262 -0.21942,-1.19873 0.61249,-2.23406 0.91992,-1.14494 2.42053,-1.1416 1.51282,0.0131 3.05951,1.25632 2.04602,1.64453 2.30432,4.01719 l -1.44061,0.44582 q -0.0226,-0.82002 -0.46472,-1.71664 -0.42993,-0.88685 -1.31897,-1.60143 -0.93774,-0.75374 -1.80633,-0.77031 -0.86866,-0.0166 -1.34821,0.58025 -0.44037,0.54811 -0.10791,1.35663 0.35449,0.80613 1.69781,2.42712 1.11194,1.435 1.29963,2.64831 0.19983,1.22309 -0.66138,2.29496 -1.01788,1.26674 -2.58917,1.22662 -1.57129,-0.0401 -3.19104,-1.34203 z m 10.33923,8.31037 q -1.9364,-1.55643 -1.76495,-4.06479 l -3.88538,4.83556 -1.41272,-1.13552 10.08044,-12.54564 1.41272,1.1355 -1.08636,1.35201 q 1.04498,-0.30272 2.20111,-0.0951 1.16833,0.21736 2.11823,0.98089 1.82678,1.46833 1.90747,3.63803 0.0806,2.16971 -1.68103,4.36216 -1.75184,2.18025 -3.89509,2.60255 -2.14331,0.42229 -3.99444,-1.06561 z m 0.66467,-1.55063 q 1.31525,1.05721 2.87024,0.74341 1.57697,-0.31618 2.86884,-1.92397 1.25268,-1.55906 1.23425,-3.15757 0.004,-1.60091 -1.33612,-2.67768 -0.85254,-0.68522 -1.93793,-0.85603 -1.08545,-0.17081 -1.93036,0.13235 l -3.29815,4.10474 q -0.1142,0.8905 0.27636,1.9261 0.40033,1.02344 1.25287,1.70865 z m 9.71363,9.89239 q -2.04603,-1.64453 -2.26038,-4.02197 -0.20221,-2.36764 1.49091,-4.47484 1.6148,-2.00973 3.98968,-2.34608 2.3847,-0.34854 4.29675,1.18829 1.96076,1.57601 2.06794,3.88732 0.11932,2.3211 -1.62275,4.48918 l -0.28381,0.35324 -7.34369,-5.90266 q -1.04266,1.44728 -0.82172,3.0682 0.2331,1.63071 1.56055,2.69769 1.65631,1.33129 3.72107,1.1065 l -0.052,1.4617 q -2.51386,0.28479 -4.74255,-1.50657 z m 7.12188,-3.07611 q 1.00806,-1.25457 0.89435,-2.80937 -0.11371,-1.55479 -1.45337,-2.63156 -1.25439,-1.00825 -2.8092,-0.79452 -1.54254,0.22351 -2.58716,1.44871 z m 5.68451,12.98862 4.77594,-5.94397 q 0.96893,-1.20584 0.77081,-2.10679 -0.18591,-0.89116 -1.11151,-1.63512 -0.77942,-0.62648 -1.88922,-0.81688 -1.1098,-0.19038 -1.92535,0.0763 l -5.3338,6.63823 -1.41272,-1.13552 7.30096,-9.08645 1.41272,1.13551 -1.05694,1.31546 q 1.11065,-0.20984 2.30566,0.0491 1.21704,0.25652 2.15478,1.01026 2.8985,2.32974 0.53992,5.26518 l -5.11853,6.37027 z m 10.81152,8.69 1.08637,-1.352 q -1.05719,0.29292 -2.22308,0.0975 -1.15613,-0.20758 -2.10608,-0.9711 -1.82679,-1.46832 -1.88782,-3.6624 -0.0611,-2.19406 1.6712,-4.34997 1.75183,-2.18025 3.89746,-2.58058 2.16767,-0.40271 3.9823,1.05581 0.91339,0.73418 1.36243,1.79676 0.47107,1.06019 0.41229,2.25585 l 3.88538,-4.83555 1.41272,1.13551 -10.08045,12.54564 z m -1.89611,-3.22802 q 0.85247,0.68522 1.92816,0.86821 1.08783,0.19278 1.94488,-0.10059 l 3.30799,-4.11693 q 0.11181,-0.91246 -0.30072,-1.94568 -0.39057,-1.03561 -1.24311,-1.72082 -1.3153,-1.05721 -2.89221,-0.74103 -1.56482,0.32597 -2.84686,1.92159 -1.25275,1.55906 -1.24408,3.16975 0.0185,1.59853 1.34595,2.6655 z"
       fill-rule="nonzero"
       id="path99" />
    <path
       fill="#000000"
       fill-opacity="0"
       d="m 377.04068,207.69894 h 112.56693 v 41.51181 H 377.04068 Z"
       fill-rule="evenodd"
       id="path101" />
    <path
       fill="#616161"
       d="m 385.10562,238.22203 q -2.78125,0 -4.5625,-1.89063 -1.76563,-1.89062 -1.76563,-4.78125 0,-2.85937 1.76563,-4.75 1.78125,-1.89062 4.5625,-1.89062 2.9375,0 4.64062,2.21875 l -1.3125,1.20312 q -1.20312,-1.65625 -3.21875,-1.65625 -1.95312,0 -3.17187,1.35938 -1.21875,1.34375 -1.21875,3.51562 0,2.21875 1.20312,3.57813 1.21875,1.34375 3.1875,1.34375 1.98438,0 3.21875,-1.65625 l 1.3125,1.20312 q -1.70312,2.20313 -4.64062,2.20313 z m 12.93121,0 q -2.75,0 -4.51562,-1.875 -1.75,-1.875 -1.75,-4.79688 0,-2.9375 1.75,-4.78125 1.76562,-1.85937 4.51562,-1.85937 2.76563,0 4.51563,1.85937 1.76562,1.84375 1.76562,4.78125 0,2.92188 -1.76562,4.79688 -1.75,1.875 -4.51563,1.875 z m 0,-1.75 q 1.84375,0 3.01563,-1.375 1.1875,-1.39063 1.1875,-3.54688 0,-2.125 -1.1875,-3.5 -1.17188,-1.375 -3.01563,-1.375 -1.82812,0 -3.03125,1.375 -1.1875,1.35938 -1.1875,3.5 0,2.1875 1.17188,3.5625 1.1875,1.35938 3.04687,1.35938 z m 7.4368,3.9375 v -1.45313 h 14.96875 v 1.45313 z m 16.85181,-2.5 v -12.67188 h 1.96875 v 2.04688 q 1.76562,-2.3125 4.21875,-2.3125 v 2.01562 l -0.78125,-0.0781 q -0.89063,0 -1.96875,0.64062 -1.07813,0.64063 -1.46875,1.375 v 8.98438 z m 14.38122,0.3125 q -2.85937,0 -4.65625,-1.85938 -1.79687,-1.85937 -1.79687,-4.8125 0,-2.79687 1.78125,-4.71875 1.78125,-1.92187 4.46875,-1.92187 2.73437,0 4.40625,1.89062 1.6875,1.89063 1.6875,4.92188 v 0.48437 h -10.26563 q 0.0937,1.95313 1.39063,3.17188 1.3125,1.21875 3.17187,1.21875 2.3125,0 3.90625,-1.59375 l 0.95313,1.28125 q -1.95313,1.9375 -5.04688,1.9375 z m 3.9375,-7.45313 q 0,-1.76562 -1.15625,-2.98437 -1.15625,-1.23438 -3.01562,-1.23438 -1.75,0 -2.92188,1.23438 -1.17187,1.21875 -1.21875,2.98437 z m 8.32557,7.45313 q -2.8125,0 -2.8125,-2.96875 v -8.29688 h -2.09375 v -1.71875 h 2.09375 v -3.46875 h 1.96875 v 3.46875 h 2.57812 v 1.71875 h -2.57812 v 7.875 q 0,0.71875 0.3125,1.1875 0.32812,0.45313 0.98437,0.45313 0.8125,0 1.32813,-0.53125 l 0.57812,1.46875 q -0.8125,0.8125 -2.35937,0.8125 z m 13.07684,-0.3125 v -1.78125 q -0.73438,0.84375 -1.92188,1.46875 -1.1875,0.625 -2.59375,0.625 -4.04687,0 -4.04687,-4.04688 v -8.9375 h 1.96875 v 8.34375 q 0,1.5 0.67187,2.20313 0.6875,0.6875 2.15625,0.6875 1.15625,0 2.17188,-0.57813 1.03125,-0.57812 1.59375,-1.34375 v -9.3125 h 1.96875 v 12.67188 z m 5.90118,0 v -12.67188 h 1.96875 v 2.04688 q 1.76563,-2.3125 4.21875,-2.3125 v 2.01562 l -0.78125,-0.0781 q -0.89062,0 -1.96875,0.64062 -1.07812,0.64063 -1.46875,1.375 v 8.98438 z m 17.22495,0 v -8.29688 q 0,-1.67187 -0.78125,-2.29687 -0.76563,-0.64063 -2.0625,-0.64063 -1.09375,0 -2.15625,0.59375 -1.0625,0.59375 -1.59375,1.375 v 9.26563 h -1.96875 v -12.67188 h 1.96875 v 1.82813 q 0.8125,-0.9375 2,-1.54688 1.20312,-0.60937 2.51562,-0.60937 4.04688,0 4.04688,4.09375 v 8.90625 z"
       fill-rule="nonzero"
       id="path103" />
  </g>
</svg>
